<?xml version="1.0" encoding="UTF-8"?>
<svg version="1.1" xmlns="http://www.w3.org/2000/svg" width="512" height="512">
<path d="M0 0 C14.52 0 29.04 0 44 0 C44 10.89 44 21.78 44 33 C95.15 33 146.3 33 199 33 C199 22.11 199 11.22 199 0 C213.85 0 228.7 0 244 0 C244 10.89 244 21.78 244 33 C250.32285156 32.91298828 250.32285156 32.91298828 256.7734375 32.82421875 C260.15897385 32.7920076 263.54446622 32.76491383 266.93006897 32.74124908 C270.49064469 32.71497108 274.05061405 32.67992691 277.61083984 32.62280273 C281.70676148 32.55750317 285.80205261 32.53371371 289.8984375 32.51171875 C291.1592514 32.48591232 292.42006531 32.4601059 293.71908569 32.43351746 C302.55880608 32.43073662 309.48100449 33.86324732 316.1421814 39.96098328 C324.74661212 48.83475495 324.43614181 58.70993302 324.38818359 70.35839844 C324.3922529 72.01809534 324.3975968 73.67778954 324.40411377 75.33747864 C324.41774619 79.82686779 324.41250675 84.31604925 324.40297651 88.80544186 C324.39536384 93.50809716 324.40242952 98.21073508 324.40713501 102.91339111 C324.41258573 110.80508611 324.40541665 118.69669673 324.39111328 126.58837891 C324.37476545 135.7134849 324.38009347 144.83839002 324.3965925 153.9634912 C324.41019987 161.80315806 324.41213138 169.64276443 324.40427649 177.48243928 C324.39959876 182.16282334 324.39897833 186.84311291 324.40888596 191.52349091 C324.41754325 195.91978066 324.41155649 200.31581071 324.39420319 204.71207237 C324.39023268 206.32617702 324.39138202 207.94030349 324.39799118 209.55439949 C324.40617419 211.75553637 324.39592564 213.95583792 324.38095093 216.15692139 C324.37981985 217.38910778 324.37868877 218.62129417 324.37752342 219.89081955 C323.97069077 223.24138284 323.34793374 224.62306681 321 227 C317.56092179 228.22874663 314.11812821 228.32366869 310.625 227.3125 C309 226 309 226 307 222 C307 188.01 307 154.02 307 119 C184.9 119 62.8 119 -63 119 C-62.896875 158.166875 -62.79375 197.33375 -62.6875 237.6875 C-62.66260498 250.06725342 -62.63770996 262.44700684 -62.61206055 275.2019043 C-62.57550828 286.27213997 -62.57550828 286.27213997 -62.5349884 297.34236145 C-62.51700807 302.28381811 -62.50743623 307.22521533 -62.50288391 312.16670227 C-62.4968098 318.46411337 -62.47653363 324.76132638 -62.44583857 331.05866396 C-62.43699895 333.37338717 -62.43320838 335.68813627 -62.43496072 338.00287569 C-62.43660783 341.12326051 -62.42000894 344.2430268 -62.39872742 347.36332703 C-62.40357556 348.27454724 -62.40842371 349.18576746 -62.41341877 350.12460041 C-62.36006545 354.85940289 -62.20819467 358.2382947 -59 362 C-55.32296311 364.91590412 -50.62776964 364.27934121 -46.15588379 364.25828552 C-45.25282328 364.26196123 -44.34976277 364.26563693 -43.4193368 364.26942402 C-40.38692263 364.27942111 -37.35469122 364.27524982 -34.32226562 364.27124023 C-32.15085149 364.27562624 -29.97943903 364.28092793 -27.80802917 364.28707886 C-23.12902293 364.29858874 -18.45006204 364.30403899 -13.77104187 364.30496025 C-6.37649397 364.30689794 1.01795985 364.32493394 8.41247559 364.34571838 C26.77872005 364.39494609 45.14499436 364.42596546 63.5112915 364.44702148 C77.78425391 364.46352711 92.05713584 364.48629019 106.33004427 364.53004223 C113.68497259 364.55186768 121.03974823 364.55987189 128.39470673 364.55764949 C132.96519114 364.55931245 137.53557527 364.5733375 142.10602379 364.59086227 C144.22969015 364.59647673 146.35337718 364.59693335 148.47704506 364.59192467 C151.3702223 364.58581509 154.26276216 364.59795732 157.15588379 364.61473083 C158.00140352 364.60851902 158.84692325 364.6023072 159.71806479 364.59590715 C163.08856654 364.63165476 165.53593338 364.74022847 168.51027679 366.40518284 C171.11462008 369.19325203 171.06700272 372.31485013 171 376 C170.24996829 378.59101863 169.64772992 379.54067984 167.47015476 381.0848484 C163.76059441 382.45917933 160.06966317 382.2817435 156.1650238 382.26742554 C155.2628187 382.27195665 154.3606136 382.27648776 153.43106896 382.28115618 C150.40117847 382.29383869 147.37146686 382.2921773 144.34155273 382.29052734 C142.17164376 382.29651038 140.00173692 382.3033154 137.83183289 382.31088257 C131.93068157 382.3285774 126.02958824 382.33323955 120.12841296 382.33451414 C115.20083695 382.3364124 110.27327447 382.34376949 105.34570366 382.35085833 C93.71508129 382.36715481 82.08448989 382.37202631 70.45385742 382.37060547 C58.46491637 382.36940521 46.47618934 382.39048117 34.48728222 382.4220928 C24.19071559 382.44827263 13.89420779 382.45897197 3.59760815 382.45769465 C-2.55023751 382.45718532 -8.69792309 382.46285232 -14.84573555 382.48405075 C-20.63321357 382.50346047 -26.42037934 382.50353864 -32.20786858 382.48901749 C-34.32699415 382.48693137 -36.44613939 382.49161844 -38.56523132 382.5037384 C-64.08209592 382.64017293 -64.08209592 382.64017293 -74.24609375 372.5859375 C-79.69422955 364.55327403 -80.58138925 356.75221015 -80.50793457 347.24107361 C-80.51417453 345.98931243 -80.5204145 344.73755125 -80.52684355 343.44785792 C-80.54344039 339.9987969 -80.53533513 336.55018233 -80.52289867 333.10112035 C-80.51381069 329.37167968 -80.52783633 325.64231327 -80.53881836 321.91288757 C-80.55656784 314.61728076 -80.55277974 307.32183891 -80.5411678 300.02622574 C-80.53212034 294.09546349 -80.53091514 288.16474735 -80.53526306 282.23398018 C-80.53587599 281.38867304 -80.53648893 280.54336591 -80.53712043 279.67244341 C-80.53839938 277.95502832 -80.53969623 276.23761324 -80.5410108 274.52019817 C-80.55240595 258.43138348 -80.53931926 242.34266008 -80.51780933 226.25386036 C-80.49993606 212.45817568 -80.50304639 198.66262562 -80.52148438 184.86694336 C-80.54290432 168.8326655 -80.55131083 152.79846755 -80.53903532 136.76417738 C-80.53776117 135.05351962 -80.53650368 133.34286184 -80.53526306 131.63220406 C-80.53464596 130.7906026 -80.53402886 129.94900114 -80.53339306 129.08189661 C-80.52994377 123.15986827 -80.53575933 117.23789075 -80.54518127 111.31587029 C-80.556415 104.09665704 -80.55333229 96.8776177 -80.5320583 89.65842431 C-80.52156676 85.97723315 -80.51739341 82.29633165 -80.53065491 78.61514282 C-80.54482774 74.62049209 -80.52787241 70.62656878 -80.50793457 66.63194275 C-80.51685746 65.47434934 -80.52578034 64.31675593 -80.53497362 63.12408394 C-80.45129399 54.47877196 -78.57960938 47.33747551 -72.8125 40.6875 C-72.04873047 39.76517578 -72.04873047 39.76517578 -71.26953125 38.82421875 C-63.53331909 32.60595527 -55.60099734 32.45274113 -45.99609375 32.609375 C-44.67706558 32.61503479 -43.35803741 32.62069458 -41.9990387 32.62652588 C-38.52180688 32.64167156 -35.04526199 32.68085398 -31.56829834 32.7253418 C-28.00851903 32.76653657 -24.44862351 32.78480856 -20.88867188 32.8046875 C-13.92517805 32.84523186 -6.96356122 32.92354736 0 33 C0 22.11 0 11.22 0 0 Z M17 17 C17 33.5 17 50 17 67 C20.63 67 24.26 67 28 67 C28 50.5 28 34 28 17 C24.37 17 20.74 17 17 17 Z M216 17 C216 33.5 216 50 216 67 C219.63 67 223.26 67 227 67 C227 50.5 227 34 227 17 C223.37 17 219.74 17 216 17 Z M-60 52 C-68.59035026 66.31725044 -63 85.30336028 -63 102 C59.1 102 181.2 102 307 102 C309.79517513 75.81030536 309.79517513 75.81030536 304 52 C297.86431634 48.23015306 291.76025758 48.61001289 284.72265625 48.70703125 C283.5561705 48.71127609 282.38968475 48.71552094 281.18785095 48.71989441 C277.47916126 48.73662478 273.77102418 48.77426779 270.0625 48.8125 C267.5410235 48.82755407 265.01953844 48.84124121 262.49804688 48.85351562 C256.33164945 48.88395194 250.16643994 48.94268713 244 49 C244 60.22 244 71.44 244 83 C229.15 83 214.3 83 199 83 C199 71.78 199 60.56 199 49 C147.85 49 96.7 49 44 49 C44 60.22 44 71.44 44 83 C29.48 83 14.96 83 0 83 C0 71.78 0 60.56 0 49 C-7.4201912 48.93103437 -14.83926486 48.87132627 -22.25952148 48.83520508 C-24.78234633 48.82014295 -27.3051451 48.79968923 -29.82788086 48.77368164 C-33.45953824 48.73718617 -37.09084858 48.7202474 -40.72265625 48.70703125 C-41.84583755 48.69154739 -42.96901886 48.67606354 -44.12623596 48.66011047 C-50.15969443 48.65882141 -54.7925731 48.80048655 -60 52 Z " fill="#000000" transform="translate(82,13)"/>
<path d="M0 0 C4.15617719 3.50464789 8.08537356 7.23014525 12 11 C12.64453125 11.58136719 13.2890625 12.16273438 13.953125 12.76171875 C34.19568426 31.53811134 46.85545314 62.33613726 48.12451172 89.68310547 C49.05919869 124.5684099 40.63398714 157.69174984 16.13085938 183.70751953 C14.7579745 185.14225032 13.37908915 186.57123185 12 188 C11.27039063 188.79277344 10.54078125 189.58554687 9.7890625 190.40234375 C-5.65734437 206.73878521 -25.70247536 215.9125672 -47 222 C-48.00571045 222.29245605 -48.00571045 222.29245605 -49.03173828 222.59082031 C-69.00079208 228.11226633 -92.20980203 226.45858003 -112 221 C-112.65532715 220.82871582 -113.3106543 220.65743164 -113.98583984 220.48095703 C-130.68178471 216.01641077 -145.92885336 207.16457991 -159 196 C-160.48693359 194.77410156 -160.48693359 194.77410156 -162.00390625 193.5234375 C-180.91749648 177.19906106 -193.60130873 155.0101706 -200 131 C-200.17644043 130.3498291 -200.35288086 129.6996582 -200.53466797 129.02978516 C-208.60880497 97.62147223 -202.38745598 62.37205171 -186.02783203 34.67529297 C-180.92208406 26.35328761 -174.69284762 19.07401482 -168 12 C-166.86111328 10.76443359 -166.86111328 10.76443359 -165.69921875 9.50390625 C-122.88535886 -35.41210715 -47.98824728 -37.53236973 0 0 Z M-153 21 C-153.97646484 21.85464844 -153.97646484 21.85464844 -154.97265625 22.7265625 C-172.45729281 38.8471494 -183.39208631 63.66603544 -186 87 C-186.0274688 88.66644029 -186.03622333 90.33372702 -186 92 C-185.44014404 92.0093457 -184.88028809 92.01869141 -184.3034668 92.02832031 C-181.76391854 92.08204507 -179.22620889 92.16568187 -176.6875 92.25 C-175.80642578 92.26417969 -174.92535156 92.27835937 -174.01757812 92.29296875 C-167.51483624 92.54022129 -167.51483624 92.54022129 -164.91796875 94.859375 C-163.66264442 97.7866845 -163.60567947 99.84543573 -164 103 C-164.91796875 105.140625 -164.91796875 105.140625 -167 107 C-170.21702657 107.65394278 -173.4123019 107.69729015 -176.6875 107.75 C-177.58017578 107.77964844 -178.47285156 107.80929687 -179.39257812 107.83984375 C-181.59514277 107.91051427 -183.79665131 107.96321939 -186 108 C-183.88074768 134.8195035 -172.71680327 157.66953105 -154 177 C-153.21367187 177.81210937 -152.42734375 178.62421875 -151.6171875 179.4609375 C-134.74721196 195.81501165 -109.84011716 208 -86 208 C-85.96261719 206.81921875 -85.92523438 205.6384375 -85.88671875 204.421875 C-85.82104851 202.86455212 -85.75460153 201.30726186 -85.6875 199.75 C-85.66494141 198.97269531 -85.64238281 198.19539062 -85.61914062 197.39453125 C-85.45989273 194.0068943 -85.27268701 191.54368555 -83.73828125 188.484375 C-81.54271709 186.60951122 -80.36468317 186.46180422 -77.5 186.5 C-76.7265625 186.4896875 -75.953125 186.479375 -75.15625 186.46875 C-73 187 -73 187 -71.26171875 188.484375 C-69.41156107 192.17323428 -69.43082148 195.67297978 -69.3125 199.75 C-69.27833984 200.54277344 -69.24417969 201.33554687 -69.20898438 202.15234375 C-69.12680896 204.10107504 -69.06171955 206.05051362 -69 208 C-40.54637917 205.75162124 -13.76723512 192.77546224 5 171 C19.07316365 153.53979335 31 130.96242609 31 108 C30.44014404 107.9906543 29.88028809 107.98130859 29.3034668 107.97167969 C26.76391854 107.91795493 24.22620889 107.83431813 21.6875 107.75 C20.80642578 107.73582031 19.92535156 107.72164063 19.01757812 107.70703125 C12.51483624 107.45977871 12.51483624 107.45977871 9.91796875 105.140625 C8.66264442 102.2133155 8.60567947 100.15456427 9 97 C9.91796875 94.859375 9.91796875 94.859375 12 93 C15.21702657 92.34605722 18.4123019 92.30270985 21.6875 92.25 C22.58017578 92.22035156 23.47285156 92.19070313 24.39257812 92.16015625 C26.59514277 92.08948573 28.79665131 92.03678061 31 92 C28.3992407 62.8093881 15.53494082 35.49725338 -7.09765625 16.30859375 C-24.77954422 1.94764203 -46.10831278 -7.65450943 -69 -9 C-69.03738281 -7.74703125 -69.07476562 -6.4940625 -69.11328125 -5.203125 C-69.17894885 -3.55205379 -69.24539593 -1.90101345 -69.3125 -0.25 C-69.33505859 0.575 -69.35761719 1.4 -69.38085938 2.25 C-69.53631747 5.75487347 -69.69104584 8.3763526 -71.26171875 11.546875 C-73.45945614 13.38408468 -74.6559903 13.53792013 -77.5 13.5 C-78.2734375 13.5103125 -79.046875 13.520625 -79.84375 13.53125 C-82 13 -82 13 -83.73828125 11.546875 C-85.63917416 7.70977848 -85.57182042 3.9805676 -85.6875 -0.25 C-85.72166016 -1.09046875 -85.75582031 -1.9309375 -85.79101562 -2.796875 C-85.87323568 -4.86412204 -85.93830157 -6.93203874 -86 -9 C-110.90158973 -9 -135.19948296 4.58817578 -153 21 Z " fill="#000000" transform="translate(462,274)"/>
<path d="M0 0 C20.46 0 40.92 0 62 0 C62 19.8 62 39.6 62 60 C41.54 60 21.08 60 0 60 C0 40.2 0 20.4 0 0 Z M17 17 C17 25.58 17 34.16 17 43 C26.24 43 35.48 43 45 43 C45 34.42 45 25.84 45 17 C35.76 17 26.52 17 17 17 Z " fill="#000000" transform="translate(130,224)"/>
<path d="M0 0 C20.46 0 40.92 0 62 0 C62 19.8 62 39.6 62 60 C41.54 60 21.08 60 0 60 C0 40.2 0 20.4 0 0 Z M17 17 C17 25.91 17 34.82 17 44 C26.24 44 35.48 44 45 44 C45 35.09 45 26.18 45 17 C35.76 17 26.52 17 17 17 Z " fill="#000000" transform="translate(130,148)"/>
<path d="M0 0 C20.13 0 40.26 0 61 0 C61 19.8 61 39.6 61 60 C40.87 60 20.74 60 0 60 C0 40.2 0 20.4 0 0 Z M17 17 C17 25.58 17 34.16 17 43 C25.91 43 34.82 43 44 43 C44 34.42 44 25.84 44 17 C35.09 17 26.18 17 17 17 Z " fill="#000000" transform="translate(216,224)"/>
<path d="M0 0 C20.13 0 40.26 0 61 0 C61 19.8 61 39.6 61 60 C40.87 60 20.74 60 0 60 C0 40.2 0 20.4 0 0 Z M17 17 C17 25.58 17 34.16 17 43 C25.91 43 34.82 43 44 43 C44 34.42 44 25.84 44 17 C35.09 17 26.18 17 17 17 Z " fill="#000000" transform="translate(45,224)"/>
<path d="M0 0 C20.13 0 40.26 0 61 0 C61 19.8 61 39.6 61 60 C40.87 60 20.74 60 0 60 C0 40.2 0 20.4 0 0 Z M17 17 C17 25.91 17 34.82 17 44 C25.91 44 34.82 44 44 44 C44 35.09 44 26.18 44 17 C35.09 17 26.18 17 17 17 Z " fill="#000000" transform="translate(131,300)"/>
<path d="M0 0 C20.13 0 40.26 0 61 0 C61 19.8 61 39.6 61 60 C40.87 60 20.74 60 0 60 C0 40.2 0 20.4 0 0 Z M17 17 C17 25.91 17 34.82 17 44 C25.91 44 34.82 44 44 44 C44 35.09 44 26.18 44 17 C35.09 17 26.18 17 17 17 Z " fill="#000000" transform="translate(45,300)"/>
<path d="M0 0 C20.13 0 40.26 0 61 0 C61 19.8 61 39.6 61 60 C40.87 60 20.74 60 0 60 C0 40.2 0 20.4 0 0 Z M17 17 C17 25.91 17 34.82 17 44 C25.91 44 34.82 44 44 44 C44 35.09 44 26.18 44 17 C35.09 17 26.18 17 17 17 Z " fill="#000000" transform="translate(302,148)"/>
<path d="M0 0 C20.13 0 40.26 0 61 0 C61 19.8 61 39.6 61 60 C40.87 60 20.74 60 0 60 C0 40.2 0 20.4 0 0 Z M17 17 C17 25.91 17 34.82 17 44 C25.91 44 34.82 44 44 44 C44 35.09 44 26.18 44 17 C35.09 17 26.18 17 17 17 Z " fill="#000000" transform="translate(216,148)"/>
<path d="M0 0 C0.7528125 -0.01289063 1.505625 -0.02578125 2.28125 -0.0390625 C5.74281513 0.99696932 6.63263235 2.53746086 8.5 5.625 C9.05094443 9.14657204 8.96552545 12.61894147 8.890625 16.17578125 C8.88496521 17.18972458 8.87930542 18.20366791 8.87347412 19.24833679 C8.85112998 22.47854336 8.80093598 25.70763017 8.75 28.9375 C8.72993252 31.13084333 8.71168218 33.32420408 8.6953125 35.51757812 C8.65127179 40.88709913 8.58437916 46.25596955 8.5 51.625 C9.22622559 51.89940918 9.95245117 52.17381836 10.70068359 52.45654297 C13.3839328 53.57655263 15.78405023 54.84909895 18.2890625 56.3203125 C19.68282104 57.13544312 19.68282104 57.13544312 21.10473633 57.96704102 C22.10142334 58.55541748 23.09811035 59.14379395 24.125 59.75 C25.16229248 60.36093506 26.19958496 60.97187012 27.26831055 61.60131836 C29.49928234 62.91567519 31.72964819 64.23106094 33.95947266 65.54736328 C36.99525853 67.33408448 40.04484682 69.09584932 43.09899902 70.85095215 C45.5735017 72.27483875 48.04223816 73.70853839 50.51019287 75.14373779 C51.7054249 75.83592727 52.90304603 76.52400877 54.10308838 77.20782471 C55.79007172 78.17020882 57.46751454 79.1492579 59.14453125 80.12890625 C60.10721924 80.68392822 61.06990723 81.2389502 62.06176758 81.81079102 C64.79942203 83.84779014 66.07139078 85.53984076 67.5 88.625 C67.43611417 92.33037805 67.29259706 94.64217965 64.9375 97.5625 C61.3522783 99.12528895 58.29589321 99.30727463 54.5 98.625 C50.34427132 96.81960798 46.54822778 94.48637358 42.6875 92.125 C40.97044401 91.10395788 39.25338269 90.08292462 37.53604126 89.06236267 C35.73946887 87.99063328 33.94804248 86.91073797 32.15771484 85.82861328 C28.50089154 83.62051908 24.82513146 81.44551262 21.14453125 79.27734375 C14.58589843 75.41075229 8.03653224 71.52887309 1.5 67.625 C0.23372269 67.07455269 0.23372269 67.07455269 -1.05813599 66.51298523 C-3.95837622 65.11928939 -6.16527564 63.84757953 -8.5 61.625 C-9.92410587 57.40361937 -9.76369281 53.38377866 -9.6171875 48.96484375 C-9.61252472 47.74221329 -9.60786194 46.51958282 -9.60305786 45.25990295 C-9.58360354 42.68006405 -9.54007371 40.10030935 -9.47412109 37.52124023 C-9.37524086 33.57211966 -9.35115899 29.62798135 -9.33984375 25.67773438 C-9.31167178 23.16921782 -9.27926291 20.66074451 -9.2421875 18.15234375 C-9.2314621 16.97204086 -9.22073669 15.79173798 -9.20968628 14.57566833 C-8.97318395 6.42900093 -8.97318395 6.42900093 -6.59228516 2.38354492 C-4.19760458 0.37083965 -3.10131989 -0.05310479 0 0 Z " fill="#000000" transform="translate(384.5,317.375)"/>
<path d="M0 0 C7.5075 -0.04125 15.015 -0.0825 22.75 -0.125 C25.11510742 -0.14320801 27.48021484 -0.16141602 29.91699219 -0.18017578 C31.79361748 -0.18601754 33.67024531 -0.19111385 35.546875 -0.1953125 C36.51963379 -0.20554443 37.49239258 -0.21577637 38.49462891 -0.22631836 C39.89479248 -0.22668091 39.89479248 -0.22668091 41.32324219 -0.22705078 C42.53569611 -0.23371262 42.53569611 -0.23371262 43.77264404 -0.24050903 C46.3076079 0.03321538 47.85643146 0.6276721 50 2 C52.50031654 5.75047482 52.53603554 7.55856266 52 12 C49.38786321 15.37496508 47.93645496 16.83996635 43.6784668 17.56762695 C42.44781494 17.54144287 41.21716309 17.51525879 39.94921875 17.48828125 C39.29041214 17.48120651 38.63160553 17.47413177 37.95283508 17.46684265 C35.86319966 17.43900979 33.77631524 17.37630819 31.6875 17.3125 C30.26501286 17.28740205 28.84248341 17.26459148 27.41992188 17.24414062 C23.9447209 17.19348172 20.47541187 17.09565354 17 17 C17 25.91 17 34.82 17 44 C23.40293465 43.80273151 23.40293465 43.80273151 29.80371094 43.54956055 C36.38140702 43.44715568 36.38140702 43.44715568 39.609375 46.33203125 C41.31442062 49.60322833 41.60685968 51.35884189 41 55 C39.49902344 57.65698242 39.49902344 57.65698242 37 60 C33.9798001 60.44521714 31.52359071 60.58712508 28.515625 60.48828125 C27.7922998 60.48324585 27.06897461 60.47821045 26.32373047 60.47302246 C23.63208147 60.44694059 20.9409993 60.37713249 18.25 60.3125 C12.2275 60.209375 6.205 60.10625 0 60 C0 40.2 0 20.4 0 0 Z " fill="#000000" transform="translate(216,300)"/>
<path d="M0 0 C20.13 0 40.26 0 61 0 C61 4.95 61 9.9 61 15 C56 20 56 20 52.375 20.4375 C49 20 49 20 46 18 C42.89791016 17.6303565 42.89791016 17.6303565 39.36328125 17.5859375 C38.06455078 17.54726562 36.76582031 17.50859375 35.42773438 17.46875 C34.05599427 17.43729483 32.68424939 17.40604749 31.3125 17.375 C29.92901215 17.33680803 28.54554777 17.29775558 27.16210938 17.2578125 C23.7748755 17.16339483 20.38764931 17.07781882 17 17 C17.05220703 18.53720703 17.05220703 18.53720703 17.10546875 20.10546875 C17.13362035 21.46612936 17.16091904 22.8268078 17.1875 24.1875 C17.21263672 24.86103516 17.23777344 25.53457031 17.26367188 26.22851562 C17.32907182 30.69751197 16.75630065 33.45618488 14 37 C10.86128812 38.56935594 8.46144178 38.35201103 5 38 C1.44111539 35.30871218 0.13572159 33.86003705 -0.56762695 29.40307617 C-0.56639001 28.03278565 -0.53927123 26.6623108 -0.48828125 25.29296875 C-0.48324585 24.64928345 -0.47821045 24.00559814 -0.47302246 23.34240723 C-0.44702516 20.95697966 -0.37721735 18.57219122 -0.3125 16.1875 C-0.209375 10.845625 -0.10625 5.50375 0 0 Z " fill="#000000" transform="translate(302,224)"/>
</svg>
