<?xml version="1.0" encoding="UTF-8"?>
<svg version="1.1" xmlns="http://www.w3.org/2000/svg" width="512" height="512">
<path d="M0 0 C1.09330124 -0.00860046 2.18660248 -0.01720093 3.31303406 -0.02606201 C4.50788925 -0.03032196 5.70274445 -0.03458191 6.93380737 -0.03897095 C8.1960463 -0.04714844 9.45828522 -0.05532593 10.7587738 -0.06375122 C14.94193401 -0.0899132 19.12510391 -0.10527547 23.30831909 -0.11953735 C24.75187053 -0.12489989 26.19542191 -0.13027741 27.63897324 -0.13566971 C33.64738919 -0.15729207 39.65580253 -0.17602561 45.66424751 -0.1872921 C54.25572619 -0.20351146 62.84675125 -0.23664703 71.43805897 -0.29369295 C77.48920118 -0.33249255 83.54022259 -0.35193672 89.59148586 -0.35721266 C93.2002976 -0.36085319 96.80862489 -0.37273387 100.41730118 -0.4053154 C104.45041768 -0.44120757 108.48256901 -0.43699993 112.51583862 -0.42959595 C113.69854843 -0.44600128 114.88125824 -0.46240662 116.09980774 -0.47930908 C124.91485274 -0.41326111 131.37320269 1.69128832 138.23410034 7.29452515 C138.8335144 7.9906189 139.43292847 8.68671265 140.05050659 9.40390015 C140.976698 10.43257202 140.976698 10.43257202 141.92160034 11.48202515 C147.06602691 19.60855579 146.9950986 27.83107773 146.80050659 37.21640015 C146.78697144 38.46356812 146.77343628 39.71073608 146.75949097 40.99569702 C146.7243968 44.04888981 146.67522927 47.10116005 146.61300659 50.15390015 C147.50238167 50.15021297 148.39175674 50.1465258 149.30808258 50.1427269 C170.95830385 50.05435192 192.60849399 49.98817883 214.25885773 49.94665146 C224.72886131 49.92603484 235.19874441 49.89793137 245.66867065 49.85214233 C254.79530274 49.8122471 263.92184757 49.78646079 273.04856443 49.77754617 C277.88017804 49.77233599 282.71154203 49.76010882 287.54307556 49.73097992 C292.0935744 49.70376842 296.6437215 49.69546674 301.19429398 49.70146942 C302.86156248 49.70037175 304.52884312 49.692452 306.19604111 49.67707825 C316.1136114 49.5901346 323.18505051 49.75340568 331.2252655 56.27168274 C331.98010727 57.02937454 332.73494904 57.78706635 333.51266479 58.56771851 C334.38329056 59.43219101 335.25391632 60.29666351 336.15092468 61.18733215 C337.06266953 62.11344803 337.97441437 63.0395639 338.91378784 63.9937439 C339.88092538 64.96327096 340.84880928 65.93205401 341.81739807 66.90013123 C343.83472652 68.92057067 345.84521171 70.94749403 347.85055542 72.97982788 C350.41355198 75.57689301 352.98960883 78.16050617 355.57044697 80.73982906 C357.56566961 82.73559683 359.55562831 84.73654396 361.54387474 86.73925972 C362.95053808 88.15532208 364.36015319 89.56845029 365.76982117 90.98152161 C366.62468613 91.84914627 367.47955109 92.71677094 368.36032104 93.61068726 C369.11118484 94.36917465 369.86204865 95.12766205 370.63566589 95.90913391 C376.07245468 102.08122146 376.73902853 107.35329544 376.73326111 115.39884949 C376.73454275 116.47719017 376.73454275 116.47719017 376.73585027 117.57731551 C376.73749414 119.9802293 376.73200163 122.38307289 376.72653198 124.78598022 C376.72624985 126.51083372 376.72640836 128.23568734 376.72697449 129.96054077 C376.72726144 134.63985804 376.72138115 139.31914969 376.71440053 143.99846101 C376.70815005 148.88984691 376.70756185 153.7812334 376.70637512 158.67262268 C376.70326681 167.93373728 376.69506015 177.19484008 376.68502563 186.45594949 C376.67384898 196.99999865 376.66835013 207.54404837 376.6633302 218.08810198 C376.65287713 239.77670796 376.63528735 261.46530331 376.61300659 283.15390015 C377.40287964 283.29481079 378.19275269 283.43572144 379.00656128 283.5809021 C381.99392183 284.23764013 382.86128446 284.67932882 384.61300659 287.15390015 C385.22836748 289.24892428 385.80767299 291.35467106 386.36300659 293.46640015 C387.88906761 297.69132833 389.12151878 300.22795197 393.09738159 302.3062439 C396.85371303 303.92198478 400.66262258 305.1061896 404.61300659 306.15390015 C405.47023315 306.4168689 406.32745972 306.67983765 407.21066284 306.95077515 C411.46295546 307.31031859 414.83346419 305.00178136 418.57785034 303.18515015 C422.13517463 301.97648398 424.0286367 302.11359472 427.61300659 303.15390015 C429.45675659 304.2906189 429.45675659 304.2906189 431.11300659 305.84140015 C431.77429565 306.45757202 432.43558472 307.0737439 433.11691284 307.70858765 C433.94062378 308.51554077 434.76433472 309.3224939 435.61300659 310.15390015 C436.17745483 310.7046521 436.74190308 311.25540405 437.32345581 311.82284546 C440.47905164 314.91039389 443.61853394 318.01423131 446.73410034 321.1421814 C447.26446899 321.67367798 447.79483765 322.20517456 448.34127808 322.7527771 C450.64261357 325.28826653 450.98800659 327.57471347 450.98800659 330.95858765 C450.33551225 334.7783983 448.36082704 338.03684119 446.51144409 341.4078064 C445.3138656 345.06823108 446.1085777 346.65699846 447.61300659 350.15390015 C448.03839722 351.1903064 448.46378784 352.22671265 448.90206909 353.29452515 C449.79728383 355.37812437 450.69312355 357.46145517 451.58956909 359.54452515 C452.61300659 362.15390015 452.61300659 362.15390015 452.61300659 364.15390015 C453.59140503 364.40913452 453.59140503 364.40913452 454.58956909 364.66952515 C460.31771189 366.25785973 465.31160754 367.85250109 469.61300659 372.15390015 C469.75116034 374.70069309 469.82611344 377.21845803 469.85128784 379.7671814 C469.85935959 380.53314133 469.86743134 381.29910126 469.87574768 382.08827209 C469.88960409 383.7132337 469.90031926 385.33822461 469.90817261 386.96322632 C469.92536511 389.4459683 469.96923188 391.92737165 470.01339722 394.40975952 C470.02352567 395.98722367 470.0320413 397.56469916 470.03878784 399.1421814 C470.05629593 399.88398148 470.07380402 400.62578156 470.09184265 401.39006042 C470.07720336 404.87877232 469.90477867 406.77647614 467.74093628 409.57553101 C465.41180394 411.30314006 463.25959343 412.37420198 460.55050659 413.40390015 C459.69328003 413.7390564 458.83605347 414.07421265 457.95285034 414.41952515 C455.61300659 415.15390015 455.61300659 415.15390015 452.61300659 415.15390015 C452.44285034 415.75975952 452.27269409 416.3656189 452.09738159 416.98983765 C451.85503784 417.82772827 451.61269409 418.6656189 451.36300659 419.52890015 C451.10003784 420.44542358 450.83706909 421.36194702 450.56613159 422.3062439 C449.63860833 425.0774097 448.43223577 427.49051478 447.11300659 430.09140015 C445.75883874 433.30502236 445.44644945 434.60577573 446.47238159 437.98202515 C447.39432947 439.87771572 448.34737811 441.7586143 449.33175659 443.62265015 C451.12125293 447.15799658 451.49152198 449.27379051 450.61300659 453.15390015 C448.69056513 456.21980121 446.17327204 458.61326864 443.61300659 461.15390015 C442.36733906 462.42257201 441.12263335 463.69218862 439.87863159 464.9624939 C437.20991163 467.67014275 434.5370272 470.3732791 431.84347534 473.0562439 C431.27008423 473.62850708 430.69669312 474.20077026 430.10592651 474.79037476 C427.53155457 477.14162043 425.29341332 477.51607205 421.84347534 477.54452515 C418.89438659 477.02804726 416.69289384 475.67594334 414.05050659 474.27890015 C409.98431472 472.43528671 408.27762993 471.98039847 403.90206909 473.12265015 C401.4249479 474.14591376 399.12674069 475.3253561 396.74191284 476.56796265 C393.92393915 477.99629888 391.71597673 478.72470428 388.61300659 479.15390015 C388.55113159 479.93765015 388.48925659 480.72140015 388.42550659 481.52890015 C387.31848977 486.46789826 385.22961349 490.82549434 382.61300659 495.15390015 C377.92897746 497.49591471 370.93356099 496.46581445 365.72824097 496.5039978 C364.07152262 496.52056499 362.41487598 496.54786554 360.7585144 496.58602905 C358.36848941 496.64080244 355.98013716 496.66266889 353.58956909 496.67733765 C352.85090607 496.70000702 352.11224304 496.72267639 351.35119629 496.74603271 C347.53456381 496.73035832 345.96601294 496.49967539 343.193573 493.7840271 C341.65086628 491.21690021 340.42935337 488.76344466 339.36300659 485.96640015 C339.02785034 485.10659546 338.69269409 484.24679077 338.34738159 483.3609314 C337.61300659 481.15390015 337.61300659 481.15390015 337.61300659 479.15390015 C336.66941284 478.89866577 336.66941284 478.89866577 335.70675659 478.63827515 C331.30615698 477.39232224 327.34392279 476.11731154 323.36300659 473.84140015 C320.46592868 472.3202891 319.92558805 472.09648722 316.55050659 472.71640015 C315.58113159 473.19077515 314.61175659 473.66515015 313.61300659 474.15390015 C308.67941561 476.48614316 305.09067225 478.11489412 299.61300659 477.15390015 C296.54667646 475.23917816 294.15224551 472.70928685 291.61300659 470.15390015 C290.43054194 469.0056009 289.24684537 467.85856947 288.06222534 466.7124939 C286.78605571 465.46525753 285.51132674 464.21654545 284.23800659 462.96640015 C283.61853149 462.36037964 282.9990564 461.75435913 282.36080933 461.12997437 C281.48404541 460.2542981 281.48404541 460.2542981 280.58956909 459.3609314 C280.06443726 458.83990845 279.53930542 458.3188855 278.9982605 457.78207397 C277.40426718 455.90855592 276.42040718 454.49032542 275.61300659 452.15390015 C275.90291509 450.14714551 276.23266385 448.14549511 276.61300659 446.15390015 C275.10114021 446.1594309 275.10114021 446.1594309 273.55873108 446.16507339 C249.02941358 446.25388775 224.50011695 446.31961084 199.97067261 446.36114883 C188.10839115 446.38177043 176.24621595 446.40988349 164.38400269 446.45565796 C154.0444033 446.49553786 143.70488087 446.52133589 133.36520672 446.53025413 C127.89085552 446.53546687 122.41672446 446.54771065 116.94244385 446.57682037 C111.78786485 446.60400752 106.6335963 446.61233839 101.47895241 446.60633087 C99.58915329 446.60742962 97.69934358 446.61536375 95.80960655 446.63072205 C93.22400092 446.65070178 90.63955861 446.64581057 88.05392456 446.63491821 C87.31071048 446.64656958 86.5674964 446.65822094 85.80176067 446.67022538 C80.38449016 446.60878019 76.12056958 445.20539705 71.61300659 442.15390015 C66.35308871 435.81502475 66.46632385 429.8190394 66.49275208 421.97279358 C66.49189765 421.04563862 66.49104323 420.11848366 66.49016291 419.1632331 C66.48851538 416.05552891 66.49401763 412.94787866 66.4994812 409.84017944 C66.49976326 407.61286928 66.49960498 405.38555901 66.4990387 403.1582489 C66.49875143 397.109143 66.50463672 391.06005687 66.51161265 385.01095557 C66.51785799 378.69018132 66.51845093 372.36940662 66.51963806 366.04862976 C66.52239442 355.43877784 66.5286434 344.82893375 66.53756714 334.21908569 C66.54674841 323.29167721 66.55382575 312.3642707 66.55807495 301.43685913 C66.55833767 300.76311175 66.5586004 300.08936436 66.55887108 299.39520039 C66.56017614 296.01515348 66.56143984 292.63510654 66.56268299 289.2550596 C66.57304698 261.22133473 66.59073221 233.18761789 66.61300659 205.15390015 C65.75602676 205.16056198 64.89904694 205.16722382 64.01609802 205.17408752 C55.91033648 205.23438522 47.80465108 205.279969 39.69871616 205.30933666 C35.53210892 205.32494283 31.36568817 205.34608787 27.19918823 205.38021851 C23.17265445 205.41299336 19.14629922 205.43079107 15.11964226 205.43853188 C13.58916352 205.44404305 12.05869372 205.45480449 10.5282917 205.47109032 C-0.11976318 205.57981861 -9.46636296 205.5478638 -17.69949341 198.02890015 C-18.50000122 197.32507202 -19.30050903 196.6212439 -20.12527466 195.89608765 C-27.02806502 187.5269014 -26.9593111 178.69214003 -26.88870239 168.29623413 C-26.8924908 166.70199101 -26.89799513 165.10775119 -26.90507507 163.51351929 C-26.91897787 159.20565984 -26.90789705 154.89820211 -26.89136386 150.59036517 C-26.87746072 146.07109983 -26.88397933 141.55185656 -26.88749695 137.03257751 C-26.89019464 129.44608119 -26.8767605 121.85974349 -26.85354614 114.27328491 C-26.82692959 105.51461077 -26.82519401 96.75620157 -26.83693451 87.99750084 C-26.84772985 79.55434574 -26.84151206 71.11128604 -26.82737923 62.6681385 C-26.82163562 59.08259882 -26.82168926 55.49712933 -26.82644463 51.91158867 C-26.83123231 47.68679681 -26.82103892 43.46229349 -26.79948997 39.23755646 C-26.79394662 37.69125148 -26.79343419 36.14491863 -26.79844284 34.59861183 C-26.83000361 23.45377632 -26.15050288 15.37509745 -18.28933716 6.9156189 C-12.86238397 1.88983678 -7.2891421 0.04278369 0 0 Z M-7.76199341 21.52890015 C-10.4879588 25.9323827 -10.51273505 30.19776267 -10.52070618 35.28875732 C-10.52497116 36.52239517 -10.52923615 37.75603302 -10.53363037 39.02705383 C-10.53328089 40.3862305 -10.53281938 41.74540714 -10.53225708 43.10458374 C-10.53525069 44.54222196 -10.53865369 45.97985937 -10.54243469 47.41749573 C-10.55125813 51.31630995 -10.5536121 55.21510222 -10.55425048 59.11392546 C-10.5549619 61.55144319 -10.55709795 63.98895536 -10.5597477 66.42647171 C-10.56899548 74.93490197 -10.57308327 83.44331659 -10.57229614 91.95175171 C-10.57169543 99.87529654 -10.58224746 107.79877328 -10.59803981 115.72230089 C-10.61112681 122.53179982 -10.61647955 129.34127654 -10.61584073 136.15078795 C-10.6155861 140.21482147 -10.61841838 144.27879444 -10.62901878 148.3428154 C-10.63871935 152.16611528 -10.63876556 155.98929698 -10.63150215 159.81260109 C-10.63045876 161.21259166 -10.63280461 162.61258967 -10.63886261 164.01256752 C-10.80844464 173.79774941 -10.80844464 173.79774941 -8.38699341 183.15390015 C-4.44427517 186.89948247 -1.9016507 188.27647698 3.45146179 188.29434204 C4.98453728 188.30290726 4.98453728 188.30290726 6.54858398 188.31164551 C8.23720047 188.3133223 8.23720047 188.3133223 9.95993042 188.31503296 C11.14212662 188.31999786 12.32432281 188.32496277 13.54234314 188.33007812 C16.79039655 188.34219949 20.03841395 188.3496484 23.28648591 188.35408878 C25.31575121 188.35701896 27.34501085 188.36112369 29.3742733 188.36559296 C35.72330919 188.37927037 42.07233216 188.38893544 48.42138177 188.39279485 C55.75034861 188.39727432 63.07912882 188.41481589 70.40803891 188.44379544 C76.07265792 188.46541642 81.73722443 188.47549937 87.40188426 188.47683597 C90.78519052 188.47788384 94.16832142 188.48378746 97.55158424 188.50165558 C101.32716704 188.51867419 105.10229378 188.51684571 108.87789917 188.51034546 C109.9975708 188.51956024 111.11724243 188.52877502 112.27084351 188.53826904 C113.8166082 188.52991531 113.8166082 188.52991531 115.39360046 188.52139282 C116.73229549 188.52359266 116.73229549 188.52359266 118.09803486 188.52583694 C122.67121886 187.84951308 124.99871489 185.90303049 127.89418125 182.37200165 C129.80760399 178.78956169 130.11345514 176.69658723 130.11421204 172.66427612 C130.12896324 170.73386223 130.12896324 170.73386223 130.14401245 168.76445007 C130.13464178 167.3506443 130.12486252 165.93684119 130.11471558 164.52304077 C130.11850126 163.02451572 130.12400336 161.52599417 130.13108826 160.02748108 C130.14502776 155.96749626 130.13388388 151.90793594 130.11737704 147.84797478 C130.10350562 143.59468138 130.109989 139.34141211 130.11351013 135.08810425 C130.1162106 127.94606706 130.10275072 120.80419809 130.07955933 113.66220093 C130.05295057 105.41080195 130.05120308 97.15968419 130.06294769 88.90825701 C130.07373544 80.96326133 130.06753058 73.01836715 130.05339241 65.07337952 C130.04764125 61.69551691 130.04770843 58.31772879 130.05245781 54.93986511 C130.05723818 50.96052388 130.04708227 46.98148967 130.02550316 43.0022068 C130.01994951 41.54375557 130.01945693 40.08527475 130.02445602 38.62682152 C130.03043383 36.63238229 130.01603596 34.63791329 130.00068665 32.64352417 C129.99825675 31.52857323 129.99582685 30.41362228 129.99332333 29.26488495 C129.4530754 24.84566558 127.95097524 21.44726984 124.73800659 18.34140015 C120.92473236 16.21045278 116.95556355 16.02865641 112.6550293 16.01345825 C111.68223022 16.00774811 110.70943115 16.00203796 109.70715332 15.99615479 C108.65144135 15.99503693 107.59572937 15.99391907 106.50802612 15.99276733 C105.38712585 15.98780243 104.26622559 15.98283752 103.11135864 15.97772217 C99.40617253 15.96312622 95.70102922 15.95630338 91.99581909 15.95077515 C89.41898599 15.94502233 86.8421529 15.93926461 84.26531982 15.9335022 C79.55345565 15.92434149 74.84160856 15.91803771 70.12973702 15.91500545 C63.20662925 15.91052481 56.28371892 15.89297053 49.36067116 15.86400485 C43.35229014 15.83974342 37.34400223 15.83205927 31.33556747 15.8303299 C28.78470662 15.82730404 26.23384658 15.81927781 23.68301773 15.80614471 C20.11411844 15.78907906 16.54569973 15.79096588 12.97677612 15.79745483 C11.92511261 15.78824005 10.8734491 15.77902527 9.78991699 15.76953125 C2.76782983 15.80950011 -2.58125747 16.34816421 -7.76199341 21.52890015 Z M146.61300659 67.15390015 C146.44259756 104.1759182 146.44259756 104.1759182 146.31515503 141.1980896 C146.26974487 148.38473511 146.26974487 148.38473511 146.24343872 151.75709534 C146.2288962 154.09491151 146.22205595 156.43278381 146.22146606 158.77064514 C146.2190341 162.32756048 146.19158383 165.88352736 146.15890503 169.4402771 C146.1639291 170.46869123 146.16895317 171.49710535 146.17412949 172.55668354 C146.0575061 180.71110195 144.36993083 188.83687597 139.42550659 195.52890015 C123.99415354 209.93149632 104.81851503 204.62376244 83.61300659 205.15390015 C83.61300659 279.07390015 83.61300659 352.99390015 83.61300659 429.15390015 C147.96300659 429.15390015 212.31300659 429.15390015 278.61300659 429.15390015 C276.17700463 419.99632759 276.17700463 419.99632759 273.61300659 415.15390015 C270.63101397 413.72257726 270.63101397 413.72257726 267.17550659 412.65390015 C259.94164959 410.2614737 259.94164959 410.2614737 257.61300659 406.15390015 C257.18063354 402.85409546 257.18063354 402.85409546 257.10128784 398.98202515 C257.08333664 398.29960754 257.06538544 397.61718994 257.04689026 396.91409302 C256.99290276 394.74409074 256.95893076 392.57430689 256.92550659 390.40390015 C256.89232307 388.92860941 256.85783244 387.45334745 256.82199097 385.9781189 C256.73718502 382.37025587 256.67031822 378.76231653 256.61300659 375.15390015 C255.62902075 375.14893493 255.62902075 375.14893493 254.6251564 375.1438694 C238.66764813 375.06266917 222.71024545 374.97058656 206.75287247 374.86637306 C199.0360233 374.81623908 191.3191848 374.76979627 183.6022644 374.73202515 C176.87664465 374.69909669 170.15110747 374.65926077 163.42557883 374.61111009 C159.86405781 374.58585354 156.3025915 374.56406981 152.74100494 374.55055618 C148.76627321 374.53534561 144.79174223 374.50471447 140.81710815 374.4727478 C139.63459473 374.47058762 138.4520813 374.46842743 137.23373413 374.46620178 C136.15122375 374.4550383 135.06871338 374.44387482 133.95339966 374.43237305 C133.01317081 374.42684229 132.07294197 374.42131153 131.10422134 374.41561317 C128.46489595 374.13834047 126.83921263 373.58023172 124.61300659 372.15390015 C123.06713783 369.06216263 123.31941138 366.55960462 123.61300659 363.15390015 C125.72595722 360.3199875 126.92217374 359.27833739 130.43218613 358.64609146 C131.52727619 358.64240429 132.62236626 358.63871712 133.75064087 358.63491821 C135.63945229 358.614049 135.63945229 358.614049 137.56642151 358.59275818 C138.95922981 358.59747112 140.35203686 358.60256507 141.74484253 358.60800171 C143.21340531 358.59926647 144.68195857 358.58878085 146.15049744 358.57667542 C150.13574624 358.54878832 154.1206849 358.54541131 158.10601711 358.5463953 C162.2714427 358.5432685 166.43672812 358.5176552 170.6020813 358.49441528 C178.48908213 358.45383379 186.37600025 358.43350955 194.26308942 358.42044139 C203.24252937 358.4045786 212.22182839 358.36616605 221.20118666 358.3258481 C239.67174876 358.24341977 258.14229759 358.18934602 276.61300659 358.15390015 C277.48342902 356.26547501 278.33376133 354.36778113 279.17550659 352.46640015 C279.65117065 351.41065796 280.12683472 350.35491577 280.61691284 349.2671814 C282.12719141 344.54682054 281.12692939 342.24341648 279.05050659 337.84140015 C278.57613159 336.95452515 278.10175659 336.06765015 277.61300659 335.15390015 C276.84878765 335.15059 276.08456871 335.14727985 275.29719162 335.1438694 C256.71095928 335.06268575 238.12481023 334.97060855 219.53869247 334.86637306 C210.55062312 334.81622909 201.56256298 334.76978638 192.57443237 334.73202515 C184.74132874 334.69910709 176.90829615 334.65927692 169.07527089 334.61111009 C164.9268901 334.58584323 160.77855646 334.5640625 156.63011932 334.55055618 C152.72641347 334.53773751 148.82286927 334.51568525 144.9192524 334.48651695 C143.48577432 334.47743965 142.05227021 334.47175058 140.61876488 334.46968651 C138.66268682 334.46636523 136.70664488 334.44971397 134.75064087 334.43237305 C133.6555508 334.42684229 132.56046074 334.42131153 131.43218613 334.41561317 C128.61409529 334.15400121 126.96134767 333.70313786 124.61300659 332.15390015 C123.06713783 329.06216263 123.31941138 326.55960462 123.61300659 323.15390015 C125.75219811 320.25388193 126.92735333 319.26452525 130.51801872 318.68519783 C131.65392008 318.69969412 132.78982143 318.71419041 133.96014404 318.72912598 C135.26643265 318.7354454 136.57272125 318.74176483 137.91859436 318.74827576 C139.36475091 318.77531714 140.81090252 318.80262406 142.25704956 318.83016968 C143.78168606 318.84435736 145.30634192 318.85658152 146.83100891 318.86698914 C150.11546228 318.89231718 153.39952714 318.92900984 156.68377304 318.97369766 C161.88827372 319.04184764 167.09247794 319.06883631 172.29736328 319.08721924 C187.09853902 319.14412006 201.89883563 319.22580753 216.69894409 319.41757202 C224.87291208 319.52314384 233.04560653 319.57812975 241.22027504 319.57749069 C245.54144645 319.57933053 249.85898504 319.60676534 254.17928696 319.69705582 C274.30030099 321.05344855 274.30030099 321.05344855 291.68387032 313.09307671 C293.31505145 311.22196449 294.72225337 309.31376386 296.11743164 307.26324463 C298.61300659 304.15390015 298.61300659 304.15390015 302.2567749 303.15368652 C306.01440879 303.1539257 307.95827749 303.8769864 311.23800659 305.65390015 C315.30480751 307.84461239 317.16563632 308.47309074 321.61300659 307.15390015 C322.85953003 306.86257202 324.10605347 306.5712439 325.39035034 306.27108765 C333.00750025 304.29178582 333.00750025 304.29178582 338.88937378 299.43417358 C340.5454497 296.20474444 341.59770049 292.90625585 342.57003784 289.41952515 C343.61300659 286.15390015 343.61300659 286.15390015 346.61300659 284.15390015 C350.90300659 283.82390015 355.19300659 283.49390015 359.61300659 283.15390015 C359.61300659 227.71390015 359.61300659 172.27390015 359.61300659 115.15390015 C347.73300659 114.82390015 335.85300659 114.49390015 323.61300659 114.15390015 C316.61300659 111.82056681 316.61300659 111.82056681 313.61300659 108.15390015 C309.28608826 95.17314516 311.97295874 80.83208192 311.61300659 67.15390015 C257.16300659 67.15390015 202.71300659 67.15390015 146.61300659 67.15390015 Z M328.61300659 80.15390015 C328.61300659 86.09390015 328.61300659 92.03390015 328.61300659 98.15390015 C334.55300659 98.15390015 340.49300659 98.15390015 346.61300659 98.15390015 C342.88286609 93.61724278 338.94247093 89.37448892 334.80050659 85.21640015 C334.30832642 84.71970825 333.81614624 84.22301636 333.30905151 83.71127319 C331.30671392 81.24058211 331.30671392 81.24058211 328.61300659 80.15390015 Z M355.61300659 300.15390015 C354.46831909 303.03108765 354.46831909 303.03108765 353.30050659 305.96640015 C350.44760076 313.13721751 350.44760076 313.13721751 347.61300659 315.15390015 C345.25574067 316.03966067 342.95732617 316.81310962 340.55050659 317.52890015 C335.82108881 318.99945349 331.48346432 320.58924825 327.11300659 322.96640015 C323.03039993 325.09177693 320.28636759 325.91863195 315.61300659 325.15390015 C313.25152336 324.14241159 310.98361267 323.06048178 308.72628784 321.83358765 C306.63315899 320.93662203 306.63315899 320.93662203 304.60910034 321.77890015 C302.24919003 323.40451351 300.35554214 325.21994674 298.36300659 327.27890015 C297.30339722 328.36557983 297.30339722 328.36557983 296.22238159 329.47421265 C295.69128784 330.02850952 295.16019409 330.5828064 294.61300659 331.15390015 C295.55050226 334.03335113 296.46796155 336.83963589 297.73800659 339.59140015 C299.35845756 344.33700655 299.01832973 348.12671137 297.18722534 352.7671814 C296.57024708 354.00626562 295.94090792 355.23925793 295.30050659 356.46640015 C293.09602847 360.88027955 291.2078392 365.03340494 289.98800659 369.84140015 C289.14076199 372.87443557 288.66767936 374.09094363 286.55050659 376.52890015 C282.37371507 378.83946567 278.08584926 380.48403889 273.61300659 382.15390015 C273.61300659 387.10390015 273.61300659 392.05390015 273.61300659 397.15390015 C276.89238159 398.39140015 276.89238159 398.39140015 280.23800659 399.65390015 C285.52173579 402.01450963 288.38026931 404.41752066 290.49093628 409.86288452 C291.39608295 412.64417686 292.22332289 415.44178081 293.01290894 418.25790405 C293.85231268 420.90998276 295.12692581 423.23545082 296.48800659 425.65390015 C298.71991436 429.98770164 299.62951495 433.33223218 298.61300659 438.15390015 C297.45845203 441.60269831 296.09393007 444.82182232 294.61300659 448.15390015 C297.91300659 451.45390015 301.21300659 454.75390015 304.61300659 458.15390015 C305.91238159 457.67952515 307.21175659 457.20515015 308.55050659 456.71640015 C310.23335009 456.18071239 311.92101198 455.65994148 313.61300659 455.15390015 C314.65714722 454.82325562 314.65714722 454.82325562 315.72238159 454.4859314 C321.81697603 453.14557886 325.88898859 455.40418697 331.22433472 458.32675171 C336.05379835 460.97170714 340.84737535 462.6349117 346.18722534 464.03671265 C351.91148845 466.67300773 353.49181249 474.66805334 355.61300659 480.15390015 C360.56300659 480.15390015 365.51300659 480.15390015 370.61300659 480.15390015 C371.19050659 478.00890015 371.76800659 475.86390015 372.36300659 473.65390015 C374.14776444 468.64894408 376.36013613 465.91738585 381.18331909 463.58358765 C385.44160503 461.82428087 389.7948096 460.39425267 394.18600464 459.00643921 C396.59703488 458.15951057 398.79198512 457.14317243 401.06222534 455.97421265 C404.86051461 454.02701485 406.44554536 453.47349831 410.61300659 454.15390015 C412.95225921 455.14122043 415.2127284 456.20322888 417.46456909 457.3765564 C420.08850241 458.32594318 421.06035569 458.24789339 423.61300659 457.15390015 C425.85485912 455.49819272 425.85485912 455.49819272 427.92550659 453.40390015 C428.6435144 452.7284314 429.36152222 452.05296265 430.10128784 451.35702515 C431.88402204 449.24687197 431.88402204 449.24687197 431.44113159 446.6031189 C430.58974102 443.95001291 430.58974102 443.95001291 429.05050659 440.71640015 C427.38285391 436.58352177 426.73920831 433.55306441 428.3041687 429.25619507 C429.2709422 427.12908774 430.29953495 425.04683116 431.36300659 422.96640015 C433.86707363 417.98351085 435.90690027 413.41047545 437.23800659 407.96640015 C438.49419823 404.11564447 439.40003399 403.28098869 442.96456909 401.15390015 C446.44542182 399.50203638 449.91782856 398.41984077 453.61300659 397.15390015 C453.61300659 392.20390015 453.61300659 387.25390015 453.61300659 382.15390015 C451.52988159 381.41140015 449.44675659 380.66890015 447.30050659 379.90390015 C439.81932508 377.2373404 439.81932508 377.2373404 437.61300659 373.15390015 C436.7486468 370.75878704 435.96657329 368.40081995 435.23800659 365.96640015 C433.82938555 361.42362461 432.30715243 357.3110318 429.73800659 353.27890015 C427.44495721 349.42830779 427.21916024 346.82196695 428.01535034 342.4390564 C429.02137315 338.59249861 430.24906876 334.88990378 431.61300659 331.15390015 C428.31300659 327.85390015 425.01300659 324.55390015 421.61300659 321.15390015 C420.12800659 321.81390015 418.64300659 322.47390015 417.11300659 323.15390015 C412.5417438 324.93374756 408.50086183 326.32311732 403.61300659 325.15390015 C400.62182371 323.83760476 397.78011854 322.3525504 394.91378784 320.7828064 C391.39329308 319.04547348 387.93930666 318.00348153 384.17550659 316.90390015 C379.11897348 315.1923724 376.76073635 313.92222442 374.36300659 309.09140015 C373.74851212 307.45694559 373.1627622 305.81125162 372.61300659 304.15390015 C371.62300659 302.17390015 371.62300659 302.17390015 370.61300659 300.15390015 C365.66300659 300.15390015 360.71300659 300.15390015 355.61300659 300.15390015 Z " fill="#000000" transform="translate(34.386993408203125,7.846099853515625)"/>
<path d="M0 0 C3.66263298 3.03193744 7.00438575 6.3313445 10.32470703 9.73095703 C11.00275391 10.38837891 11.68080078 11.04580078 12.37939453 11.72314453 C24.47152976 24.24522235 27.82002626 40.86647954 27.67431641 57.65673828 C27.19666926 76.53025529 19.57638914 90.78835206 6.32470703 103.73095703 C5.66728516 104.40900391 5.00986328 105.08705078 4.33251953 105.78564453 C-8.18955828 117.87777976 -24.81081548 121.22627626 -41.60107422 121.08056641 C-60.47459123 120.60291926 -74.732688 112.98263914 -87.67529297 99.73095703 C-88.35333984 99.07353516 -89.03138672 98.41611328 -89.72998047 97.73876953 C-101.8221157 85.21669172 -105.1706122 68.59543452 -105.02490234 51.80517578 C-104.55316429 33.16514764 -96.81292214 17.4155301 -83.37060547 4.52001953 C-60.76917806 -14.82087409 -24.38633874 -18.47277598 0 0 Z M-76.05029297 21.66064453 C-86.2038269 34.59663728 -89.24277079 47.63843117 -87.67529297 63.73095703 C-85.25092795 76.44444266 -77.6205284 88.32909725 -66.91748047 95.60595703 C-54.02251673 103.52102429 -41.15814089 105.9206488 -26.23388672 103.07470703 C-11.82689318 98.7169202 -1.33668214 89.7805618 5.81298828 76.75048828 C11.53156927 65.32810299 12.48133206 51.58901261 8.76220703 39.29345703 C2.6867265 23.84804525 -7.20605685 14.56367409 -22.03857422 7.62548828 C-40.75687596 0.73948091 -62.72457208 7.37393416 -76.05029297 21.66064453 Z " fill="#000000" transform="translate(304.67529296875,121.26904296875)"/>
<path d="M0 0 C11.98763026 9.3680468 21.37501425 21.65635827 23.40625 37.0859375 C25.01829365 53.68265963 21.53000037 68.0844695 11.29296875 81.39453125 C1.37904477 92.65958627 -11.23788411 99.18293517 -26.125 100.75 C-42.6897575 101.79479548 -56.6922987 96.83779737 -69.19140625 86.12109375 C-79.09077371 76.8228264 -85.47905206 63.79782851 -86.203125 50.1796875 C-86.52354156 32.69670546 -82.11593644 18.37250732 -69.703125 5.4765625 C-50.65135823 -11.97837988 -21.47663217 -14.46449605 0 0 Z M-61.1015625 21.64453125 C-68.57385288 30.91570635 -69.8568485 41.49374869 -69 53 C-66.80366594 63.32012389 -60.79665506 71.73693111 -52.15625 77.71875 C-42.92315955 83.20507911 -33.50124007 85.20985382 -22.9375 82.9375 C-11.38894741 79.60589945 -2.69078115 72.72691101 3.375 62.3125 C7.30310086 53.52688156 8.15168214 43.09485418 5 34 C0.58820682 22.81661728 -6.22169935 15.21902822 -17.015625 10.03125 C-33.23946865 3.54171254 -49.47479422 9.77275444 -61.1015625 21.64453125 Z " fill="#000000" transform="translate(429,352)"/>
<path d="M0 0 C1.63986877 -0.01270432 1.63986877 -0.01270432 3.31286621 -0.02566528 C6.92557416 -0.04905834 10.53785681 -0.05005688 14.15063477 -0.04882812 C16.66260448 -0.05592805 19.17457257 -0.06362679 21.6865387 -0.07189941 C26.95137885 -0.08534936 32.21610949 -0.0870917 37.48095703 -0.08105469 C43.55861563 -0.0744137 49.63566736 -0.09728379 55.71320289 -0.13436842 C61.56998635 -0.16880355 67.42653147 -0.17539929 73.2834034 -0.17127991 C75.77090323 -0.17297373 78.25841086 -0.18264133 80.7458477 -0.20042419 C84.22428427 -0.22255579 87.701256 -0.21293979 91.1796875 -0.1953125 C92.72049736 -0.21520737 92.72049736 -0.21520737 94.29243469 -0.23550415 C98.8182392 -0.18220756 102.12343159 -0.11435658 105.75550842 2.7689209 C111.43150069 9.04105788 110.46076646 16.90779674 110.40454102 24.91992188 C110.41227539 26.02207031 110.42000977 27.12421875 110.42797852 28.25976562 C110.4141943 34.00089126 110.28932941 39.05370722 108.15454102 44.41992188 C104.37526146 48.01023745 101.8412175 49.54164274 96.69572449 49.56036377 C95.7578157 49.56607391 94.81990692 49.57178406 93.85357666 49.57766724 C92.82133972 49.5787851 91.78910278 49.57990295 90.72558594 49.58105469 C89.64092545 49.58601959 88.55626495 49.5909845 87.43873596 49.59609985 C83.83748753 49.61074825 80.23628314 49.61752806 76.63500977 49.62304688 C74.13877867 49.62879626 71.64254759 49.63455402 69.14631653 49.64031982 C64.5767954 49.649492 60.00728696 49.65578912 55.43775767 49.65881658 C48.71438895 49.6632955 41.99122371 49.68083468 35.26791686 49.70981717 C29.44374896 49.7340513 23.61964888 49.74176156 17.79543495 49.74349213 C15.31828008 49.74652276 12.84112616 49.75456502 10.36400414 49.76767731 C6.89973866 49.78470524 3.43596987 49.7828652 -0.02832031 49.77636719 C-1.56756668 49.79018936 -1.56756668 49.79018936 -3.13790894 49.80429077 C-11.93349514 49.75253083 -11.93349514 49.75253083 -15.84545898 46.41992188 C-18.72829365 42.0007828 -19.22952748 38.48304 -19.24389648 33.26367188 C-19.24676666 32.59831421 -19.24963684 31.93295654 -19.25259399 31.24743652 C-19.25462382 29.84903099 -19.24917002 28.45059636 -19.23657227 27.05224609 C-19.22050079 24.92545407 -19.23645547 22.80056185 -19.25561523 20.67382812 C-19.25363261 19.30793856 -19.24978852 17.94205017 -19.24389648 16.57617188 C-19.2405127 15.34705078 -19.23712891 14.11792969 -19.23364258 12.8515625 C-18.70530717 8.18094458 -17.54964832 4.86955651 -13.91157532 1.77490234 C-9.31688084 -0.25558855 -4.97126905 -0.01415505 0 0 Z M-1.84545898 17.41992188 C-1.84545898 22.36992188 -1.84545898 27.31992187 -1.84545898 32.41992188 C29.50454102 32.41992188 60.85454102 32.41992188 93.15454102 32.41992188 C93.15454102 27.46992187 93.15454102 22.51992188 93.15454102 17.41992188 C61.80454102 17.41992188 30.45454102 17.41992188 -1.84545898 17.41992188 Z " fill="#000000" transform="translate(48.845458984375,36.580078125)"/>
<path d="M0 0 C0.85012319 -0.00779995 1.70024637 -0.01559991 2.57613087 -0.02363622 C5.42383515 -0.04357487 8.27020581 -0.02778455 11.11791992 -0.01205444 C13.15978781 -0.01882973 15.20164958 -0.02773236 17.24349976 -0.03860474 C22.78896924 -0.06141503 28.33397406 -0.05255439 33.87945175 -0.03670931 C39.680064 -0.02405939 45.4806362 -0.0357879 51.28125 -0.04364014 C61.02277782 -0.05273932 70.76411617 -0.04074162 80.50561523 -0.01693726 C91.77165695 0.01027439 103.03724626 0.00146043 114.30327702 -0.02606928 C123.97220517 -0.04875158 133.64099704 -0.0519647 143.3099432 -0.03887594 C149.08647516 -0.03107664 154.86279441 -0.03005314 160.63931274 -0.04655838 C166.06986314 -0.06099093 171.49982968 -0.05100318 176.93031693 -0.0220871 C178.92455704 -0.01546985 180.9188462 -0.01738481 182.91306686 -0.02840042 C185.63330263 -0.0420422 188.35166156 -0.0249573 191.07177734 0 C191.86311978 -0.01115361 192.65446222 -0.02230722 193.46978474 -0.03379881 C197.4618828 0.03736694 199.33793589 0.48191656 202.53364563 2.95194435 C204.53588867 5.63491821 204.53588867 5.63491821 205.03588867 9.19741821 C204.52275962 12.72518041 204.07400958 14.19080178 201.53588867 16.63491821 C197.78563022 17.88500436 194.294647 17.77964807 190.38821411 17.77536011 C189.54796688 17.77833123 188.70771965 17.78130235 187.84201038 17.78436351 C185.01616424 17.79306052 182.19036042 17.7945596 179.36450195 17.79605103 C177.34264027 17.80067844 175.32077946 17.805703 173.29891968 17.81109619 C167.79893734 17.82422844 162.29896722 17.83066661 156.79897165 17.83510685 C153.36479814 17.83803588 149.93062798 17.84214034 146.49645615 17.84661102 C135.75740198 17.86028732 125.01835545 17.86995367 114.27929318 17.87381291 C101.87177401 17.87829595 89.46436487 17.89585474 77.05687916 17.92481351 C67.47295343 17.94640784 57.88905871 17.95651597 48.3051089 17.95785403 C42.57776404 17.95890355 36.85052259 17.96484278 31.12320328 17.98267365 C25.73716179 17.99911572 20.35130189 18.00132863 14.96524429 17.99253464 C12.98711665 17.99176222 11.00897939 17.99613376 9.03087616 18.00599289 C6.33287629 18.01865278 3.63552541 18.01286815 0.93753052 18.00241089 C0.15260574 18.01046729 -0.63231905 18.0185237 -1.44102943 18.02682424 C-5.95067413 17.98587276 -8.8864553 17.44807505 -12.46411133 14.63491821 C-14.03346727 11.49620634 -13.81612236 9.09635999 -13.46411133 5.63491821 C-9.62261341 0.45216053 -6.1176488 -0.08622545 0 0 Z " fill="#000000" transform="translate(170.464111328125,285.3650817871094)"/>
<path d="M0 0 C2.8125 1.6875 2.8125 1.6875 5 4 C5.1546875 5.2375 5.1546875 5.2375 5.3125 6.5 C5.70803744 9.07630965 5.70803744 9.07630965 7.58203125 9.92578125 C8.25621094 10.21839844 8.93039062 10.51101562 9.625 10.8125 C15.22509539 13.31038428 19.20184039 17.40368079 21.94921875 22.8984375 C22.92979127 25.75896116 23.04355894 27.80834066 22.375 30.75 C20.79234478 33.33979945 19.69015891 34.58019391 17 36 C13.16792971 36.57073387 11.54018482 36.34375398 8.25 34.25 C6.15035798 32.15035798 5.29623775 30.5924755 4 28 C0.7623275 25.68737678 -2.10843562 25.75677723 -6 26 C-8.26566343 26.43941523 -8.26566343 26.43941523 -10 27 C-10 28.98 -10 30.96 -10 33 C-8.1746875 33.61875 -8.1746875 33.61875 -6.3125 34.25 C-5.49523437 34.52714844 -4.67796875 34.80429688 -3.8359375 35.08984375 C-1.83449171 35.73218103 0.18352203 36.32395676 2.2109375 36.87890625 C9.91903883 39.02603471 16.7323005 41.14965403 21.37109375 48.03515625 C24.49828734 54.17051529 25.36807464 60.60371519 23.3046875 67.234375 C20.8388301 72.74629153 17.32505586 76.65038649 11.61328125 78.96875 C9.42171718 79.71188633 7.23187291 80.38995474 5 81 C5.103125 81.7425 5.20625 82.485 5.3125 83.25 C5 86 5 86 2.875 88.3125 C-0.52115022 90.30589252 -2.1274997 90.64541672 -6 90 C-8.875 88.3125 -8.875 88.3125 -11 86 C-11.3125 83.25 -11.3125 83.25 -11 81 C-12.299375 80.62875 -12.299375 80.62875 -13.625 80.25 C-20.79910853 77.59292277 -24.99214281 73.35774089 -29 67 C-30.42733169 62.71800493 -30.77959772 58.85154459 -29 54.625 C-25.94618693 52.14377688 -22.86381596 51.94524957 -19 52 C-16.6875 52.5625 -16.6875 52.5625 -15 54 C-12 59.14285714 -12 59.14285714 -12 62 C-5.82158131 64.41109022 -0.42458483 64.55747511 6 63 C6.41780879 60.62694422 6.41780879 60.62694422 6 58 C2.17860408 55.12671557 -1.70295993 54.1891022 -6.3125 53.125 C-14.59899815 51.06568712 -21.20158488 48.38217711 -26 41 C-28.71762934 35.14134254 -29.13251824 28.96042306 -27.34765625 22.71875 C-25.07287884 17.64199355 -21.60434727 14.07644728 -17 11 C-16.071875 10.67 -15.14375 10.34 -14.1875 10 C-13.465625 9.67 -12.74375 9.34 -12 9 C-11.28293018 7.01751285 -10.61709587 5.01584651 -10 3 C-6.95122053 -0.26654943 -4.36209643 -0.62315663 0 0 Z " fill="#000000" transform="translate(269,131)"/>
<path d="M0 0 C0.87140625 -0.00386719 1.7428125 -0.00773437 2.640625 -0.01171875 C3.54296875 -0.00011719 4.4453125 0.01148437 5.375 0.0234375 C6.72851562 0.00603516 6.72851562 0.00603516 8.109375 -0.01171875 C9.41648437 -0.00591797 9.41648437 -0.00591797 10.75 0 C11.54148437 0.00338379 12.33296875 0.00676758 13.1484375 0.01025391 C15.93500428 0.49606983 17.32564733 1.47473103 19.375 3.3984375 C19.90625 5.9921875 19.90625 5.9921875 19.875 8.8984375 C19.8853125 9.8575 19.895625 10.8165625 19.90625 11.8046875 C19.375 14.3984375 19.375 14.3984375 17.63085938 16.03564453 C15.08411124 17.57416705 13.69778265 17.78427251 10.75 17.796875 C9.87859375 17.80074219 9.0071875 17.80460937 8.109375 17.80859375 C7.20703125 17.79699219 6.3046875 17.78539063 5.375 17.7734375 C4.02148438 17.79083984 4.02148438 17.79083984 2.640625 17.80859375 C1.33351563 17.80279297 1.33351563 17.80279297 0 17.796875 C-0.79148437 17.79349121 -1.58296875 17.79010742 -2.3984375 17.78662109 C-5.18500428 17.30080517 -6.57564733 16.32214397 -8.625 14.3984375 C-9.15625 11.8046875 -9.15625 11.8046875 -9.125 8.8984375 C-9.14046875 7.45984375 -9.14046875 7.45984375 -9.15625 5.9921875 C-8.625 3.3984375 -8.625 3.3984375 -6.88085938 1.76123047 C-4.33411124 0.22270795 -2.94778265 0.01260249 0 0 Z " fill="#000000" transform="translate(50.625,93.6015625)"/>
<path d="M0 0 C0.95841797 -0.00708984 1.91683594 -0.01417969 2.90429688 -0.02148438 C9.92540576 0.04247807 9.92540576 0.04247807 12.20703125 1.80249023 C13.98736696 4.16814663 13.87106599 6.01059849 13.875 8.9375 C13.90400391 10.37609375 13.90400391 10.37609375 13.93359375 11.84375 C13.4375 14.4375 13.4375 14.4375 11.69555664 16.07250977 C7.8271492 18.41095349 3.8504413 17.90967311 -0.5625 17.875 C-1.46484375 17.89498047 -2.3671875 17.91496094 -3.296875 17.93554688 C-9.82984984 17.93071479 -9.82984984 17.93071479 -13.15625 15.69140625 C-14.71198556 13.19790787 -15.10248473 11.85638497 -15.0625 8.9375 C-15.0728125 8.1846875 -15.083125 7.431875 -15.09375 6.65625 C-13.24338919 -1.07172749 -6.51347698 -0.13633882 0 0 Z " fill="#000000" transform="translate(94.5625,93.5625)"/>
<path d="M0 0 C0.92425781 -0.00257812 1.84851563 -0.00515625 2.80078125 -0.0078125 C3.76371094 -0.00007813 4.72664062 0.00765625 5.71875 0.015625 C7.16314453 0.00402344 7.16314453 0.00402344 8.63671875 -0.0078125 C9.56097656 -0.00523438 10.48523438 -0.00265625 11.4375 0 C12.28248047 0.00225586 13.12746094 0.00451172 13.99804688 0.00683594 C16.21875 0.265625 16.21875 0.265625 19.21875 2.265625 C19.6171875 4.98046875 19.6171875 4.98046875 19.59375 8.203125 C19.60148437 9.26402344 19.60921875 10.32492188 19.6171875 11.41796875 C19.16380617 14.65831175 18.76780036 15.33331432 16.21875 17.265625 C13.99804688 17.63793945 13.99804688 17.63793945 11.4375 17.62890625 C10.51324219 17.62826172 9.58898437 17.62761719 8.63671875 17.62695312 C7.67378906 17.61083984 6.71085938 17.59472656 5.71875 17.578125 C4.75582031 17.58134766 3.79289063 17.58457031 2.80078125 17.58789062 C-4.38048115 17.53280423 -4.38048115 17.53280423 -7.78125 15.265625 C-8.1796875 12.296875 -8.1796875 12.296875 -8.15625 8.765625 C-8.16398437 7.6003125 -8.17171875 6.435 -8.1796875 5.234375 C-8.04820313 4.2546875 -7.91671875 3.275 -7.78125 2.265625 C-4.57310112 0.12685908 -3.6935427 0.00986072 0 0 Z " fill="#000000" transform="translate(126.78125,93.734375)"/>
<path d="M0 0 C0.969375 -0.00386719 1.93875 -0.00773437 2.9375 -0.01171875 C3.948125 -0.00011719 4.95875 0.01148437 6 0.0234375 C7.010625 0.01183594 8.02125 0.00023438 9.0625 -0.01171875 C10.031875 -0.00785156 11.00125 -0.00398438 12 0 C12.886875 0.00338379 13.77375 0.00676758 14.6875 0.01025391 C17.45060891 0.47407814 18.34258835 1.17495809 20 3.3984375 C20.36328125 5.7734375 20.36328125 5.7734375 20.3125 8.3984375 C20.30863281 9.2646875 20.30476563 10.1309375 20.30078125 11.0234375 C20 13.3984375 20 13.3984375 18 16.3984375 C15.6015625 16.78662109 15.6015625 16.78662109 12.625 16.796875 C11.02398437 16.80267578 11.02398437 16.80267578 9.390625 16.80859375 C8.27171875 16.79699219 7.1528125 16.78539062 6 16.7734375 C4.88109375 16.78503906 3.7621875 16.79664063 2.609375 16.80859375 C1.54203125 16.80472656 0.4746875 16.80085938 -0.625 16.796875 C-1.60726562 16.79349121 -2.58953125 16.79010742 -3.6015625 16.78662109 C-4.39304688 16.65852051 -5.18453125 16.53041992 -6 16.3984375 C-8.14553377 13.18013685 -8.29583868 12.13057243 -8.3125 8.3984375 C-8.32925781 7.5321875 -8.34601562 6.6659375 -8.36328125 5.7734375 C-7.60134524 0.79217842 -4.62282285 0.01763795 0 0 Z " fill="#000000" transform="translate(50,126.6015625)"/>
<path d="M0 0 C2.3984375 -0.37231445 2.3984375 -0.37231445 5.375 -0.36328125 C6.44234375 -0.36263672 7.5096875 -0.36199219 8.609375 -0.36132812 C9.72828125 -0.34521484 10.8471875 -0.32910156 12 -0.3125 C13.67835937 -0.31733398 13.67835937 -0.31733398 15.390625 -0.32226562 C23.7331497 -0.2668503 23.7331497 -0.2668503 26 2 C26.30078125 4.49609375 26.30078125 4.49609375 26.3125 7.4375 C26.33763672 8.88962891 26.33763672 8.88962891 26.36328125 10.37109375 C25.9349462 13.47076567 25.44924219 14.135088 23 16 C19.36379322 16.63533807 15.68549082 16.46335485 12 16.4375 C10.989375 16.45748047 9.97875 16.47746094 8.9375 16.49804688 C7.968125 16.49740234 6.99875 16.49675781 6 16.49609375 C4.6696875 16.49887329 4.6696875 16.49887329 3.3125 16.50170898 C1 16 1 16 -0.78979492 14.10986328 C-2.18727462 11.6735067 -2.37385364 10.22673092 -2.3125 7.4375 C-2.30669922 6.29087891 -2.30669922 6.29087891 -2.30078125 5.12109375 C-2 3 -2 3 0 0 Z " fill="#000000" transform="translate(82,160)"/>
<path d="M0 0 C2.3984375 -0.38818359 2.3984375 -0.38818359 5.375 -0.3984375 C6.97601563 -0.40423828 6.97601563 -0.40423828 8.609375 -0.41015625 C9.72828125 -0.39855469 10.8471875 -0.38695312 12 -0.375 C13.11890625 -0.38660156 14.2378125 -0.39820313 15.390625 -0.41015625 C16.45796875 -0.40628906 17.5253125 -0.40242187 18.625 -0.3984375 C19.60726562 -0.39505371 20.58953125 -0.39166992 21.6015625 -0.38818359 C22.39304687 -0.26008301 23.18453125 -0.13198242 24 0 C26.14553377 3.21830065 26.29583868 4.26786507 26.3125 8 C26.32925781 8.86625 26.34601563 9.7325 26.36328125 10.625 C25.91835644 13.53375573 25.30836864 14.22471936 23 16 C20.6875 16.38818359 20.6875 16.38818359 18 16.3984375 C17.030625 16.40230469 16.06125 16.40617187 15.0625 16.41015625 C14.051875 16.39855469 13.04125 16.38695312 12 16.375 C10.989375 16.38660156 9.97875 16.39820313 8.9375 16.41015625 C7.968125 16.40628906 6.99875 16.40242188 6 16.3984375 C5.113125 16.39505371 4.22625 16.39166992 3.3125 16.38818359 C0.54939109 15.92435936 -0.34258835 15.22347941 -2 13 C-2.36328125 10.625 -2.36328125 10.625 -2.3125 8 C-2.30863281 7.13375 -2.30476563 6.2675 -2.30078125 5.375 C-2 3 -2 3 0 0 Z " fill="#000000" transform="translate(44,160)"/>
<path d="M0 0 C0.886875 0.00185303 1.77375 0.00370605 2.6875 0.00561523 C4.1415625 0.00464844 4.1415625 0.00464844 5.625 0.00366211 C6.635625 0.02364258 7.64625 0.04362305 8.6875 0.06420898 C9.698125 0.05711914 10.70875 0.0500293 11.75 0.04272461 C19.16892164 0.10685093 19.16892164 0.10685093 21.47729492 1.86450195 C23.24426827 4.25492424 23.05077833 6.13078372 23 9.06420898 C22.99613281 10.03487305 22.99226563 11.00553711 22.98828125 12.00561523 C22.6875 14.50170898 22.6875 14.50170898 20.6875 16.50170898 C16.70594664 16.95765845 12.69214871 16.82574311 8.6875 16.81420898 C7.00914063 16.83837891 7.00914063 16.83837891 5.296875 16.86303711 C3.69585937 16.86400391 3.69585937 16.86400391 2.0625 16.86499023 C1.08023438 16.86797119 0.09796875 16.87095215 -0.9140625 16.87402344 C-1.70554687 16.75115967 -2.49703125 16.6282959 -3.3125 16.50170898 C-5.36930002 13.41650895 -5.60716814 12.58897395 -5.625 9.06420898 C-5.64175781 8.30237305 -5.65851563 7.54053711 -5.67578125 6.75561523 C-5.09002062 3.12137994 -3.70643271 0.80412999 0 0 Z " fill="#000000" transform="translate(85.3125,126.498291015625)"/>
<path d="M0 0 C1.53333984 -0.00386719 1.53333984 -0.00386719 3.09765625 -0.0078125 C4.16886719 -0.00007812 5.24007812 0.00765625 6.34375 0.015625 C7.95056641 0.00402344 7.95056641 0.00402344 9.58984375 -0.0078125 C10.61207031 -0.00523437 11.63429687 -0.00265625 12.6875 0 C13.62787109 0.00225586 14.56824219 0.00451172 15.53710938 0.00683594 C17.84375 0.265625 17.84375 0.265625 19.84375 2.265625 C20.109375 5.015625 20.109375 5.015625 20.09375 8.265625 C20.09890625 9.338125 20.1040625 10.410625 20.109375 11.515625 C19.84375 14.265625 19.84375 14.265625 17.84375 16.265625 C15.53710938 16.52441406 15.53710938 16.52441406 12.6875 16.53125 C11.15416016 16.53511719 11.15416016 16.53511719 9.58984375 16.5390625 C8.51863281 16.53132813 7.44742188 16.52359375 6.34375 16.515625 C4.73693359 16.52722656 4.73693359 16.52722656 3.09765625 16.5390625 C2.07542969 16.53648437 1.05320312 16.53390625 0 16.53125 C-0.94037109 16.52899414 -1.88074219 16.52673828 -2.84960938 16.52441406 C-5.15625 16.265625 -5.15625 16.265625 -7.15625 14.265625 C-7.421875 11.515625 -7.421875 11.515625 -7.40625 8.265625 C-7.41140625 7.193125 -7.4165625 6.120625 -7.421875 5.015625 C-6.93375177 -0.03788608 -4.44733746 0.01066873 0 0 Z " fill="#000000" transform="translate(126.15625,159.734375)"/>
<path d="M0 0 C1.53333984 -0.00386719 1.53333984 -0.00386719 3.09765625 -0.0078125 C4.16886719 -0.00007813 5.24007812 0.00765625 6.34375 0.015625 C7.95056641 0.00402344 7.95056641 0.00402344 9.58984375 -0.0078125 C10.61207031 -0.00523438 11.63429687 -0.00265625 12.6875 0 C13.62787109 0.00225586 14.56824219 0.00451172 15.53710938 0.00683594 C17.84375 0.265625 17.84375 0.265625 19.84375 2.265625 C20.109375 5.015625 20.109375 5.015625 20.09375 8.265625 C20.09890625 9.338125 20.1040625 10.410625 20.109375 11.515625 C19.84375 14.265625 19.84375 14.265625 17.84375 16.265625 C15.53710938 16.52441406 15.53710938 16.52441406 12.6875 16.53125 C11.15416016 16.53511719 11.15416016 16.53511719 9.58984375 16.5390625 C8.51863281 16.53132813 7.44742188 16.52359375 6.34375 16.515625 C4.73693359 16.52722656 4.73693359 16.52722656 3.09765625 16.5390625 C2.07542969 16.53648437 1.05320312 16.53390625 0 16.53125 C-0.94037109 16.52899414 -1.88074219 16.52673828 -2.84960938 16.52441406 C-5.15625 16.265625 -5.15625 16.265625 -7.15625 14.265625 C-7.421875 11.515625 -7.421875 11.515625 -7.40625 8.265625 C-7.41140625 7.193125 -7.4165625 6.120625 -7.421875 5.015625 C-6.93375177 -0.03788608 -4.44733746 0.01066873 0 0 Z " fill="#000000" transform="translate(126.15625,126.734375)"/>
</svg>
