<?xml version="1.0" encoding="UTF-8"?>
<svg version="1.1" xmlns="http://www.w3.org/2000/svg" width="512" height="512">
<path d="M0 0 C0.89206146 -0.00902847 1.78412292 -0.01805695 2.70321655 -0.02735901 C4.58075628 -0.04181205 6.45834581 -0.05073589 8.3359375 -0.05444336 C11.20918579 -0.06639896 14.08032548 -0.11568025 16.953125 -0.16601562 C18.78123956 -0.17547419 20.60936724 -0.18271193 22.4375 -0.1875 C23.72353622 -0.21679848 23.72353622 -0.21679848 25.03555298 -0.24668884 C30.94664278 -0.20184763 30.94664278 -0.20184763 34.16162109 2.67944336 C36.10423023 6.35055507 35.68237581 8.42391584 34.5859375 12.37109375 C33.00707784 14.43047591 31.89451327 15.21680586 29.5859375 16.37109375 C26.94745723 16.47949889 24.33064892 16.53244127 21.69140625 16.546875 C20.08006512 16.57007725 18.46873696 16.59419476 16.85742188 16.61914062 C14.31623714 16.65422698 11.77552812 16.68358269 9.23413086 16.69702148 C6.78180217 16.71252896 4.33086561 16.75275758 1.87890625 16.796875 C1.12353073 16.79496658 0.36815521 16.79305817 -0.41011047 16.79109192 C-5.35523588 16.90532101 -7.94756805 17.82842171 -11.4140625 21.37109375 C-12.82406914 24.19110702 -12.65954701 26.2411663 -12.4140625 29.37109375 C-11.07406989 32.47423452 -10.21639076 33.96790603 -7.17591184 35.49581403 C-4.10282493 36.46973053 -1.63356698 36.62289952 1.588027 36.62556934 C3.40529188 36.63431763 3.40529188 36.63431763 5.25926918 36.64324266 C6.60029109 36.63960962 7.94131249 36.63578525 9.28233337 36.63179016 C10.70955546 36.63481079 12.13677592 36.63869983 13.56399351 36.64338273 C17.48608548 36.65368286 21.40808625 36.6514758 25.33018577 36.64720213 C29.55998277 36.64473858 33.78975759 36.65374444 38.01954651 36.66123962 C46.30606836 36.67399878 54.59255783 36.67577882 62.87908786 36.67343936 C69.61328456 36.67165747 76.34747142 36.67340307 83.08166695 36.6776638 C84.03953215 36.67825899 84.99739735 36.67885418 85.98428877 36.67946741 C87.93008872 36.68067914 89.87588866 36.68189327 91.8216886 36.68310978 C110.07545492 36.69398992 128.32920278 36.69182053 146.58297015 36.68572494 C163.28812652 36.68055485 179.9932246 36.69181279 196.69836944 36.71082316 C213.84537039 36.73018699 230.99234375 36.73846014 248.13935572 36.7346999 C257.76845471 36.73278571 267.39750407 36.73529665 277.02659416 36.74941444 C285.22350347 36.76131066 293.42033261 36.7627529 301.61724298 36.75062428 C305.80024859 36.74472332 309.98310741 36.74366966 314.16610336 36.75562668 C317.99483713 36.76644398 321.82330081 36.76343195 325.65202171 36.74936499 C327.03756862 36.74670657 328.42313641 36.7491204 329.80866288 36.75710086 C331.69175424 36.76719494 333.57492162 36.75700114 335.45800686 36.74582386 C337.02712264 36.74590638 337.02712264 36.74590638 338.62793773 36.74599057 C342.13835424 36.30108046 344.54883416 35.15750695 347.5859375 33.37109375 C349.97293035 30.22460318 350.05845116 27.22995529 349.5859375 23.37109375 C347.78599976 20.67118713 346.5021645 18.82920725 343.5859375 17.37109375 C342.01160862 17.27527766 340.43324651 17.24267608 338.85600567 17.24080849 C337.34983088 17.23537197 337.34983088 17.23537197 335.81322831 17.22982562 C334.14619307 17.23142799 334.14619307 17.23142799 332.44548035 17.23306274 C331.27123625 17.23024146 330.09699215 17.22742018 328.88716489 17.22451341 C325.61767534 17.21759891 322.34821615 17.21513999 319.07872045 17.21446228 C315.55646649 17.21262593 312.03422489 17.20502096 308.51197815 17.19798279 C302.4049463 17.18644563 296.29791723 17.17820733 290.19087791 17.17186356 C280.54050749 17.16154912 270.89017164 17.1409886 261.23982239 17.1187439 C257.93994057 17.1112638 254.6400586 17.10385012 251.34017658 17.09645653 C250.51544737 17.09460596 249.69071816 17.0927554 248.84099716 17.09084875 C239.44828207 17.06991231 230.05556316 17.05108852 220.6628418 17.03320312 C219.8039873 17.03156494 218.9451328 17.02992676 218.06025241 17.02823894 C204.14133158 17.00195236 190.2224081 16.98331037 176.30347296 16.96661122 C162.02112749 16.949199 147.73883419 16.92036268 133.45653039 16.88172185 C124.64277766 16.858304 115.82910998 16.84432568 107.01532588 16.84239422 C100.97601576 16.84028706 94.93679026 16.82737647 88.89751812 16.80591489 C85.41135165 16.7938706 81.92535322 16.7867446 78.43916702 16.79262733 C74.66170769 16.79650295 70.88474861 16.7821285 67.10734558 16.76309204 C66.00268092 16.76862174 64.89801626 16.77415143 63.75987691 16.77984869 C54.41595635 16.69822449 54.41595635 16.69822449 50.5859375 13.37109375 C49.04006874 10.27935623 49.29234229 7.77679823 49.5859375 4.37109375 C51.55986438 1.82878859 52.76719646 0.54466069 55.95110005 -0.13030291 C57.27660043 -0.13127702 57.27660043 -0.13127702 58.62887859 -0.13227081 C59.6519274 -0.1427018 60.67497621 -0.15313279 61.7290265 -0.16387987 C62.8512839 -0.15495698 63.97354131 -0.1460341 65.12980652 -0.13684082 C66.92012919 -0.14620076 66.92012919 -0.14620076 68.74662 -0.1557498 C72.06118782 -0.16896133 75.37485134 -0.16418404 78.68936455 -0.15180492 C82.26349217 -0.14276819 85.83753979 -0.15671761 89.41165161 -0.16772461 C96.41531062 -0.18553197 103.41879837 -0.18165926 110.42246415 -0.17007405 C116.11643301 -0.16104508 121.81035382 -0.15981341 127.50432777 -0.16416931 C128.31436815 -0.16478224 129.12440853 -0.16539518 129.95899558 -0.16602668 C131.60457888 -0.16730558 133.25016216 -0.16860244 134.89574543 -0.16991705 C150.33643743 -0.18133026 165.77703452 -0.16819942 181.21771095 -0.14671558 C194.45972277 -0.12886081 207.70159426 -0.13193386 220.94360352 -0.15039062 C236.32081469 -0.17181341 251.69794251 -0.18021376 267.07516652 -0.16794157 C268.71626714 -0.16666739 270.35736776 -0.16540991 271.9984684 -0.16416931 C272.80590635 -0.16355221 273.6133443 -0.16293511 274.44525006 -0.16229931 C280.1282613 -0.15884936 285.8112196 -0.16466743 291.49422264 -0.17408752 C298.42629125 -0.18532529 305.35817876 -0.18223095 312.29022672 -0.16096455 C315.82556098 -0.15047528 319.36059371 -0.14629539 322.89592552 -0.15956116 C326.73316971 -0.17374147 330.56992375 -0.15677188 334.40715027 -0.13684082 C335.51825407 -0.14576371 336.62935787 -0.15468659 337.77413148 -0.16387987 C345.89375418 -0.08213418 353.47189898 1.52454354 359.3984375 7.49609375 C365.18631172 13.82237487 367.31999797 21.21928987 366.97265625 29.69921875 C365.96479159 36.66264731 362.58911865 42.47909441 357.5859375 47.37109375 C352.33034073 51.02328812 347.9872408 52.64685871 341.5859375 53.37109375 C341.60164795 54.18674805 341.6173584 55.00240234 341.63354492 55.84277344 C341.68530525 58.92917437 341.72258964 62.0153509 341.75073242 65.10205078 C341.7728718 67.07078943 341.81103102 69.03932737 341.84960938 71.0078125 C341.96823821 86.58773284 338.58948614 99.46300288 327.5859375 110.87109375 C322.40711395 115.81164937 316.87803048 120.19511 311.203125 124.546875 C307.4940288 127.4084357 303.93866188 130.42945522 300.3984375 133.49609375 C295.38773258 137.8313071 290.34245829 142.10777969 285.17578125 146.2578125 C283.40682566 147.70125892 281.67058457 149.18549867 279.96484375 150.703125 C272.86464716 156.87391991 272.86464716 156.87391991 268.2109375 157.18359375 C264.5859375 156.37109375 264.5859375 156.37109375 262.0859375 154.24609375 C260.30792574 150.83823788 259.87633537 149.15563843 260.5859375 145.37109375 C264.25862837 141.3434216 268.40465285 137.8077067 272.5234375 134.24609375 C273.18021484 133.67697266 273.83699219 133.10785156 274.51367188 132.52148438 C279.33178631 128.37781357 284.27415727 124.43094666 289.30102539 120.54541016 C295.74294979 115.53330756 301.85906374 110.15895956 307.98242188 104.76611328 C309.34658154 103.57932761 310.73711175 102.42296403 312.1328125 101.2734375 C319.15443799 95.47927661 322.07021738 90.17611416 324.5859375 81.37109375 C324.9159375 72.13109375 325.2459375 62.89109375 325.5859375 53.37109375 C221.9659375 53.37109375 118.3459375 53.37109375 11.5859375 53.37109375 C11.48461977 81.63148946 11.48461977 81.63148946 25.5859375 102.37109375 C29.16163245 105.49256452 32.85250038 108.44138267 36.5859375 111.37109375 C38.38143107 112.82471282 40.17309373 114.28307625 41.9609375 115.74609375 C42.86457031 116.48472656 43.76820313 117.22335937 44.69921875 117.984375 C48.43557495 121.07356801 52.12675587 124.21430797 55.81982422 127.35498047 C59.81537216 130.74330949 63.8856976 134.02415045 67.9921875 137.27734375 C71.63995183 140.22192459 75.2004773 143.26560908 78.76953125 146.3046875 C82.00018062 149.04883908 85.26291804 151.73857184 88.5859375 154.37109375 C93.06525656 157.91964521 97.41933786 161.60046251 101.76953125 165.3046875 C105.00018062 168.04883908 108.26291804 170.73857184 111.5859375 173.37109375 C116.05739684 176.91341868 120.40662287 180.58478731 124.74536133 184.28710938 C128.96396901 187.87634572 133.27638533 191.32836277 137.66015625 194.71484375 C139.5859375 196.37109375 139.5859375 196.37109375 141.5859375 199.37109375 C141.79947493 202.23863815 141.89723943 205.01226237 141.90478516 207.8815918 C141.91985359 209.18435059 141.91985359 209.18435059 141.93522644 210.51342773 C141.96613794 213.3865492 141.98311569 216.25957716 142 219.1328125 C142.01870524 221.12393503 142.03827816 223.11504958 142.0586853 225.1061554 C142.11008053 230.34875796 142.14966669 235.59138624 142.18682861 240.83410645 C142.22682195 246.1830892 142.27793557 251.53196429 142.328125 256.88085938 C142.42497179 267.37752861 142.50934855 277.87425853 142.5859375 288.37109375 C146.41516764 287.82663871 149.73041998 287.07417003 153.27441406 285.52929688 C154.58542084 284.96366028 154.58542084 284.96366028 155.9229126 284.38659668 C157.3107193 283.77564148 157.3107193 283.77564148 158.7265625 283.15234375 C159.68995544 282.73440552 160.65334839 282.31646729 161.64593506 281.88586426 C164.7120464 280.55388596 167.77397071 279.21256805 170.8359375 277.87109375 C172.91119564 276.96814602 174.98671377 276.06579556 177.0625 275.1640625 C180.84825276 273.51725429 184.63312199 271.86849077 188.41503906 270.21289062 C189.55371429 269.71444641 189.55371429 269.71444641 190.71539307 269.20593262 C192.01923812 268.62401619 193.30886627 268.00962936 194.5859375 267.37109375 C194.9159375 248.56109375 195.2459375 229.75109375 195.5859375 210.37109375 C184.95016117 210.56855927 184.95016117 210.56855927 174.31567383 210.8215332 C172.97479244 210.83614664 171.63388874 210.84888529 170.29296875 210.859375 C169.60601929 210.88495483 168.91906982 210.91053467 168.21130371 210.93688965 C164.3264571 210.94039646 162.72169487 210.47918829 159.64331055 208.02807617 C157.5859375 205.37109375 157.5859375 205.37109375 156.9609375 202.37109375 C157.81749764 198.25960506 159.29228262 196.94860804 162.5859375 194.37109375 C165.59921148 193.95939479 168.04236287 193.83307082 171.03515625 193.9453125 C172.70507472 193.95322808 174.37499703 193.96036451 176.04492188 193.96679688 C178.65416344 194.00617888 181.26221784 194.05829741 183.87084961 194.12719727 C195.87236473 194.69024808 195.87236473 194.69024808 206.38671875 189.671875 C207.81788456 188.26965306 209.22142025 186.83825244 210.5859375 185.37109375 C211.72790276 184.38554518 212.88278194 183.41459528 214.0546875 182.46484375 C215.055 181.60890625 216.0553125 180.75296875 217.0859375 179.87109375 C222.50187606 175.26142694 227.99276253 170.76504596 233.5859375 166.37109375 C234.66681641 165.48550781 234.66681641 165.48550781 235.76953125 164.58203125 C239.576422 161.54515432 242.49967961 159.2580658 247.5859375 159.37109375 C252.15115489 161.50152853 252.15115489 161.50152853 253.5859375 164.37109375 C254.05969305 167.28130642 254.1526928 169.40017689 252.6328125 172.00390625 C248.5500093 177.04874929 243.39975288 180.94800534 238.34326172 184.96386719 C234.81112111 187.79232766 231.32756032 190.68039995 227.8359375 193.55859375 C226.77282349 194.43173218 226.77282349 194.43173218 225.68823242 195.32250977 C224.65533081 196.17220337 224.65533081 196.17220337 223.6015625 197.0390625 C222.99602539 197.53688232 222.39048828 198.03470215 221.76660156 198.54760742 C221.04698242 199.14935791 220.32736328 199.7511084 219.5859375 200.37109375 C218.99789841 200.7145282 218.40985931 201.05796265 217.80400085 201.4118042 C214.42005969 203.65463299 212.81716124 205.27231821 211.96456909 209.32383728 C211.74449431 213.11832027 211.74813474 216.8790109 211.82421875 220.67578125 C211.82499211 222.08293924 211.82209796 223.49010356 211.8157196 224.89724731 C211.80614926 228.59362868 211.83469162 232.28860078 211.87487793 235.98474121 C211.93642056 241.8918772 211.95603287 247.79864179 211.94505882 253.7060585 C211.94913431 255.75826314 211.97934448 257.8088889 212.01203918 259.86080933 C212.02792478 266.82982652 212.02359658 272.71990447 207.5859375 278.37109375 C203.48301992 282.48521261 199.22054927 284.72222393 193.94140625 286.89453125 C193.21335281 287.20379547 192.48529938 287.51305969 191.73518372 287.83169556 C189.41858189 288.81293072 187.09624348 289.77965136 184.7734375 290.74609375 C183.25806819 291.38578299 181.74309087 292.02640167 180.22851562 292.66796875 C177.20569006 293.94596267 174.17851515 295.21269894 171.1472168 296.47045898 C168.05366109 297.75424158 164.97101962 299.06061895 161.89379883 300.38305664 C160.38496935 301.02369674 158.87610038 301.66424386 157.3671875 302.3046875 C156.6827507 302.6033371 155.9983139 302.90198669 155.2931366 303.20968628 C149.36362303 305.7051227 143.92264428 306.63238093 137.5859375 305.37109375 C132.67880735 303.0513595 129.7748327 299.65332444 126.5859375 295.37109375 C125.33772167 291.62644625 125.48952668 288.17539368 125.53930664 284.27880859 C125.55208185 282.56920605 125.56452233 280.85960098 125.57667542 279.1499939 C125.58459169 278.24320263 125.59250797 277.33641136 125.60066414 276.40214157 C125.64280117 270.5855323 125.63093597 264.76871887 125.63077641 258.95198631 C125.63377182 253.84361979 125.65442162 248.73647468 125.71264648 243.62841797 C125.76795845 238.68360931 125.77423736 233.74084851 125.74795341 228.79582596 C125.74672223 226.91641667 125.76311262 225.03690613 125.79786873 223.15781784 C126.24830553 212.69210197 126.24830553 212.69210197 122.45114136 203.29571533 C119.93866329 201.00274143 117.45396121 199.18900672 114.5859375 197.37109375 C112.96941636 196.09492257 111.36341065 194.80519223 109.7734375 193.49609375 C108.95230469 192.84898437 108.13117188 192.201875 107.28515625 191.53515625 C104.16888926 189.0367309 101.12563667 186.46163079 98.0859375 183.87109375 C94.29711882 180.64457907 90.48734178 177.46181662 86.5859375 174.37109375 C82.10661844 170.82254229 77.75253714 167.14172499 73.40234375 163.4375 C70.17169438 160.69334842 66.90895696 158.00361566 63.5859375 155.37109375 C59.10661844 151.82254229 54.75253714 148.14172499 50.40234375 144.4375 C47.17169438 141.69334842 43.90895696 139.00361566 40.5859375 136.37109375 C36.10998551 132.82520971 31.75676065 129.14973355 27.41333008 125.4440918 C24.08818959 122.61538766 20.71326701 119.87310715 17.2734375 117.18359375 C5.84362147 107.99165432 -2.49877344 97.4013586 -4.4140625 82.37109375 C-4.6376993 77.34641067 -4.60349614 72.33689574 -4.5390625 67.30859375 C-4.52900881 65.9524806 -4.5198872 64.5963602 -4.51171875 63.24023438 C-4.48830308 59.95033275 -4.45550673 56.66080937 -4.4140625 53.37109375 C-5.00864258 53.25789795 -5.60322266 53.14470215 -6.21582031 53.02807617 C-14.14631702 51.41311227 -20.35324348 48.48177375 -25.3515625 41.87109375 C-29.47315677 35.33339249 -30.24973818 28.98502776 -29.4140625 21.37109375 C-27.7794184 15.13293842 -25.44427753 10.54249158 -20.4140625 6.37109375 C-19.2075 5.28828125 -19.2075 5.28828125 -17.9765625 4.18359375 C-12.3312642 0.19057788 -6.66633179 0.04189519 0 0 Z " fill="#000000" transform="translate(87.4140625,206.62890625)"/>
<path d="M0 0 C5.05377064 4.62879447 8.5973223 9.90051729 9.28125 16.86328125 C9.56514535 26.3619466 7.13643126 32.06476543 1.01171875 39.203125 C-1 41 -1 41 -7 44 C-7.33 56.87 -7.66 69.74 -8 83 C0.25 83 8.5 83 17 83 C17.66 81.02 18.32 79.04 19 77 C23.1896726 70.97734564 29.00930267 67.81758131 36 66 C42.83144712 64.86919732 49.09647721 66.44651517 55 70 C60.78484105 75.08950122 64.54886801 79.9356796 65.2421875 87.71875 C65.5834464 95.66807505 64.5957177 101.91901951 59.234375 108.00390625 C53.7466589 113.17834722 48.18770175 116.0121811 40.625 116.4375 C32.45605224 116.09947458 26.03791948 112.7211587 20.375 106.9765625 C19 105 19 105 17 99 C8.75 99 0.5 99 -8 99 C-7.80338568 106.53902625 -7.80338568 106.53902625 -7.54956055 114.07617188 C-7.45926383 120.97833675 -8.30722114 125.76406397 -13 131 C-18.73696438 135.47483222 -23.15470125 136.15395831 -30.23510742 136.20532227 C-31.07435257 136.21522186 -31.91359772 136.22512146 -32.77827454 136.23532104 C-35.55397718 136.26692396 -38.32969695 136.29168874 -41.10546875 136.31640625 C-43.02932685 136.33697682 -44.95318043 136.35797332 -46.87702942 136.37937927 C-51.94209136 136.43458932 -57.00719402 136.48400334 -62.07232666 136.53222656 C-67.24031195 136.58244935 -72.40823808 136.63813136 -77.57617188 136.69335938 C-87.71739738 136.80092791 -97.85867424 136.90237582 -108 137 C-108.0093457 138.00377686 -108.01869141 139.00755371 -108.02832031 140.04174805 C-108.06830231 143.7788471 -108.13408256 147.51512998 -108.20751953 151.25170898 C-108.23568186 152.86651089 -108.25692 154.48144943 -108.27099609 156.09643555 C-108.29249258 158.42307237 -108.33917211 160.74807477 -108.390625 163.07421875 C-108.39246796 164.15107185 -108.39246796 164.15107185 -108.39434814 165.24967957 C-108.53432513 170.07913571 -109.54696814 172.61806473 -113 176 C-115 176.62890625 -115 176.62890625 -117 176.5625 C-117.66 176.56378906 -118.32 176.56507813 -119 176.56640625 C-122.02735264 175.70905052 -123.09126986 174.5161088 -125 172 C-125.61123091 169.05076838 -125.58437349 166.14445643 -125.56640625 163.140625 C-125.57260483 162.27741638 -125.57880341 161.41420776 -125.58518982 160.52484131 C-125.59228667 158.69918951 -125.58911627 156.87347298 -125.57641602 155.04785156 C-125.56261367 152.27285377 -125.59654309 149.5012722 -125.63476562 146.7265625 C-125.63571753 144.94791585 -125.63385415 143.16926502 -125.62890625 141.390625 C-125.64216446 140.56951233 -125.65542267 139.74839966 -125.66908264 138.90240479 C-125.57271046 132.84841973 -123.90281461 128.66090974 -120 124 C-113.15203286 118.24488437 -103.91420843 119.55423483 -95.5 119.75 C-93.99481542 119.77009506 -92.48960495 119.78834052 -90.984375 119.8046875 C-87.32237263 119.84844702 -83.66135422 119.91730784 -80 120 C-79.94513016 114.53625904 -79.94250595 109.0758912 -79.98779297 103.61206055 C-79.99589192 101.75464603 -79.98984426 99.89711279 -79.96923828 98.03979492 C-79.94203739 95.3648018 -79.96611495 92.69436348 -80 90.01953125 C-79.9805835 89.19226028 -79.96116699 88.36498932 -79.94116211 87.51264954 C-80.00133001 85.09424646 -80.13617048 83.26323475 -81 81 C-82.91134057 79.2831948 -84.76723508 78.16046708 -87.05932617 77.0085907 C-91.2242248 74.84404457 -93.76562505 70.56171864 -95.453125 66.27734375 C-97.14862487 59.21679787 -97.26491973 51.46582928 -93.875 44.9375 C-90.06230939 39.16491505 -84.87643513 34.62016727 -78 33 C-69.37169218 31.97228271 -62.07487205 32.67785394 -55 38 C-49.57554025 43.5936217 -46.72498848 49.34026229 -46.5625 57.1875 C-46.7071012 64.70676228 -48.48979349 70.59405705 -53.97265625 75.9140625 C-57.38488465 78.60557724 -59.71559362 79.9288984 -64 81 C-64 93.87 -64 106.74 -64 120 C-51.13 119.67 -38.26 119.34 -25 119 C-24.67 93.92 -24.34 68.84 -24 43 C-25.65 42.67 -27.3 42.34 -29 42 C-34.76140978 38.27908952 -37.95976314 33.55480353 -40 27 C-40.89665047 20.05290809 -41.1463386 12.88949574 -37.38671875 6.7421875 C-28.04706288 -4.99157734 -12.89664926 -9.36138356 0 0 Z M-22 14 C-24.41339891 15.98959408 -24.41339891 15.98959408 -24.375 19.875 C-24.28349972 22.84068565 -24.08557446 23.86650384 -22.4375 26.4375 C-19.16434238 28.53567796 -16.88582276 29 -13 29 C-10.19810554 27.23358828 -8.48475089 25.96950178 -7 23 C-6.58745726 19.28711536 -6.73781314 17.45378496 -8.625 14.1875 C-13.28621308 9.89427743 -17.10715819 10.33036864 -22 14 Z M-80 54 C-80.83333333 57.5 -80.83333333 57.5 -80 61 C-77.40783917 64.69186542 -75.95850936 65.82883761 -71.5 66.625 C-67.04149064 65.82883761 -65.59216083 64.69186542 -63 61 C-62.16666667 57.5 -62.16666667 57.5 -63 54 C-65.59216083 50.30813458 -67.04149064 49.17116239 -71.5 48.375 C-75.95850936 49.17116239 -77.40783917 50.30813458 -80 54 Z M34.5625 83.9375 C31.75285833 87.29536444 31.07044901 88.79945652 31.41796875 93.05859375 C32.5396863 96.8001617 34.71418842 98.14799711 38 100 C42.34163268 100.14971147 44.19555019 99.72194213 47.4375 96.8125 C49.30215998 93.45611204 49.6303761 91.7822566 49 88 C46.94541925 84.30175465 45.6568506 83.2189502 41.625 81.875 C37.86937067 81.72583421 37.86937067 81.72583421 34.5625 83.9375 Z " fill="#000000" transform="translate(424,17)"/>
<path d="M0 0 C5.040921 4.75258429 8.55469172 9.16097389 9.37109375 16.19921875 C9.52353712 24.20697925 8.97584803 30.5004473 4 37 C-2.19277108 43 -2.19277108 43 -7 43 C-6.67 68.08 -6.34 93.16 -6 119 C13.305 119.495 13.305 119.495 33 120 C33 107.13 33 94.26 33 81 C31.02 80.34 29.04 79.68 27 79 C21.23657525 75.23613077 18.10479059 70.5640927 16 64 C14.8457129 56.40404617 15.53590364 49.86766836 19.375 43.16015625 C23.14343797 38.15067019 28.08229231 34.95503528 34 33 C42.68889219 31.9181589 49.79594047 32.88309791 57 38 C61.89286275 42.29157118 64.59511015 47.60070503 65.35546875 53.984375 C65.69266195 61.74893203 64.55699103 67.62259218 60 74 C57.05835182 77.18992028 53.89701395 79.05149303 50 81 C49.67 93.87 49.34 106.74 49 120 C59.17133781 119.8424024 59.17133781 119.8424024 69.34179688 119.63964844 C83.67844493 119.5276998 83.67844493 119.5276998 89 124 C93.61736808 129.51426036 94.74282861 134.33513999 94.62890625 141.390625 C94.63131821 142.25766052 94.63373016 143.12469604 94.63621521 144.01800537 C94.63524192 145.83659475 94.62197312 147.65521569 94.59692383 149.47363281 C94.56241473 152.25687712 94.57634036 155.03697615 94.59570312 157.8203125 C94.58880919 159.59376349 94.57914092 161.36720633 94.56640625 163.140625 C94.57136612 163.96983459 94.57632599 164.79904419 94.58143616 165.65338135 C94.46420915 171.38807446 94.46420915 171.38807446 92.08959961 174.51831055 C89.83929477 176.11395257 88.73175152 176.56783545 86 176.5625 C85.01 176.59537109 85.01 176.59537109 84 176.62890625 C80.80608899 175.62457095 79.79538461 173.77418541 78 171 C77.59010261 168.23025955 77.39536112 165.84157088 77.390625 163.07421875 C77.37408875 162.32662796 77.35755249 161.57903717 77.34051514 160.80879211 C77.29216077 158.43494348 77.27069364 156.06173478 77.25 153.6875 C77.22182957 152.07223365 77.19190063 150.45699694 77.16015625 148.84179688 C77.08640605 144.89458398 77.03675543 140.94772369 77 137 C75.94035034 136.99635437 74.88070068 136.99270874 73.78894043 136.98895264 C63.7842719 136.95195072 53.77990968 136.89412119 43.77547455 136.81609726 C38.63253028 136.77665182 33.48975648 136.74444889 28.34667969 136.72900391 C23.37978403 136.7138181 18.41335713 136.67933817 13.44667053 136.63169098 C11.55538516 136.61689706 9.66403286 136.60896013 7.77268982 136.60811615 C5.11553449 136.60573873 2.45966648 136.57859762 -0.19726562 136.54589844 C-0.97266693 136.5509288 -1.74806824 136.55595917 -2.54696655 136.56114197 C-8.09562679 136.4560563 -12.34641225 135.06058208 -17 132 C-21.37408802 127.39569682 -23.26282858 123.70588696 -23.1953125 117.359375 C-23.19031738 116.39483398 -23.18532227 115.43029297 -23.18017578 114.43652344 C-23.16196777 113.2199707 -23.14375977 112.00341797 -23.125 110.75 C-23.08375 106.8725 -23.0425 102.995 -23 99 C-31.25 99 -39.5 99 -48 99 C-48.66 100.98 -49.32 102.96 -50 105 C-54.1896726 111.02265436 -60.00930267 114.18241869 -67 116 C-73.83144712 117.13080268 -80.09647721 115.55348483 -86 112 C-91.78484105 106.91049878 -95.54886801 102.0643204 -96.2421875 94.28125 C-96.5834464 86.33192495 -95.5957177 80.08098049 -90.234375 73.99609375 C-84.7466589 68.82165278 -79.18770175 65.9878189 -71.625 65.5625 C-63.45605224 65.90052542 -57.03791948 69.2788413 -51.375 75.0234375 C-50 77 -50 77 -48 83 C-39.75 83 -31.5 83 -23 83 C-22.95910714 77.5331362 -22.94249404 72.07732843 -22.98779297 66.61206055 C-22.99589192 64.75464603 -22.98984426 62.89711279 -22.96923828 61.03979492 C-22.94203739 58.3648018 -22.96611495 55.69436348 -23 53.01953125 C-22.9805835 52.19226028 -22.96116699 51.36498932 -22.94116211 50.51264954 C-23.00135141 48.09338618 -23.13556928 46.26394566 -24 44 C-26.43633793 41.7968412 -29.07884866 40.45607743 -32 39 C-36.99102797 34.53890744 -39.57442698 30.01670975 -40.28515625 23.30859375 C-40.70522991 14.87480727 -38.89226213 8.67269032 -33.4609375 2.15234375 C-24.38894588 -6.59718371 -10.1497388 -7.35488319 0 0 Z M-22 14 C-24.34168764 17.51253146 -24.49623677 18.86469356 -24 23 C-22.5714939 25.9315113 -22.5714939 25.9315113 -20 28 C-16.50540538 28.93605213 -14.15394952 29.3742539 -10.6875 28.25 C-8.71127073 26.93353552 -8.71127073 26.93353552 -7 24 C-6.38462431 18.43060649 -6.38462431 18.43060649 -8.625 13.5625 C-13.64627365 10.25903049 -17.27034635 10.3213805 -22 14 Z M32 54 C31.16666667 57.5 31.16666667 57.5 32 61 C34.59216083 64.69186542 36.04149064 65.82883761 40.5 66.625 C44.95850936 65.82883761 46.40783917 64.69186542 49 61 C49.83333333 57.5 49.83333333 57.5 49 54 C46.40783917 50.30813458 44.95850936 49.17116239 40.5 48.375 C36.04149064 49.17116239 34.59216083 50.30813458 32 54 Z M-79 86 C-80.42662219 88.85324437 -80.31033868 90.83454549 -80 94 C-77.94541925 97.69824535 -76.6568506 98.7810498 -72.625 100.125 C-68.86937067 100.27416579 -68.86937067 100.27416579 -65.5625 98.0625 C-62.74936424 94.7004597 -62.07916744 93.19999 -62.41015625 88.9375 C-63.54698252 85.20328922 -65.70106573 83.99180937 -69 82 C-73.58534986 80.99345979 -75.71502909 82.89752747 -79 86 Z " fill="#000000" transform="translate(119,17)"/>
<path d="M0 0 C6.18499571 3.7716605 10.91396772 9.2576015 13.02734375 16.26953125 C14.54358008 23.82183219 13.38084916 30.67452891 9.4375 37.3125 C5.90309228 41.23801022 2.16475162 44.00796484 -2.5625 46.3125 C-2.56396656 47.02941356 -2.56543312 47.74632711 -2.56694412 48.48496532 C-2.60399427 65.92831409 -2.66298505 83.37145034 -2.74640274 100.81463909 C-2.78621375 109.25004585 -2.81859572 117.68535904 -2.83349609 126.12084961 C-2.84650198 133.47315486 -2.87343925 140.8252544 -2.91711307 148.1774438 C-2.93975205 152.0704968 -2.95540924 155.96329585 -2.95438385 159.85642052 C-2.95363866 163.52143592 -2.97153192 167.18588947 -3.00366783 170.85075951 C-3.01623701 172.83573891 -3.00909181 174.82081252 -3.00135803 176.80581665 C-3.02222725 178.58309898 -3.02222725 178.58309898 -3.04351807 180.39628601 C-3.04904882 181.93798478 -3.04904882 181.93798478 -3.05469131 183.51082897 C-3.6960276 187.04919554 -5.09159553 188.74810324 -7.5625 191.3125 C-9.5625 191.9765625 -9.5625 191.9765625 -11.5625 191.9375 C-12.2225 191.95039063 -12.8825 191.96328125 -13.5625 191.9765625 C-16.67393745 190.94346804 -17.76008037 188.98777734 -19.5625 186.3125 C-20.04796219 183.52479553 -20.04796219 183.52479553 -20.02764893 180.42993164 C-20.03000046 179.25230255 -20.03235199 178.07467346 -20.03477478 176.86135864 C-20.01717606 175.57808685 -19.99957733 174.29481506 -19.98144531 172.97265625 C-19.97708032 171.60074312 -19.97459035 170.22882294 -19.97383118 168.85690308 C-19.9688499 165.90751598 -19.95193121 162.95852395 -19.92609406 160.00924683 C-19.88661901 155.34471456 -19.88182848 150.68054491 -19.88323975 146.01586914 C-19.88196968 132.75352856 -19.83411777 119.49156654 -19.75146484 106.22949219 C-19.7060976 98.90094562 -19.68941214 91.57288339 -19.70344043 84.24420452 C-19.71058095 79.60757339 -19.68185697 74.97298579 -19.6265254 70.33670044 C-19.60043722 67.4518058 -19.60772603 64.56770812 -19.62441063 61.68277359 C-19.62593243 59.70956618 -19.58761366 57.7364539 -19.54811096 55.76364136 C-19.39994208 49.59010432 -19.39994208 49.59010432 -22.30736542 44.48098755 C-24.39122194 43.12022573 -24.39122194 43.12022573 -26.57076645 42.21192932 C-31.0808624 40.17525502 -33.49479936 35.88713482 -35.375 31.5 C-37.85335672 23.99371268 -36.92112213 17.70037684 -33.76171875 10.5390625 C-27.46890704 -1.14465957 -11.91547249 -5.66099076 0 0 Z M-20.5625 20.3125 C-20.71221147 24.65413268 -20.28444213 26.50805019 -17.375 29.75 C-14.01861204 31.61465998 -12.3447566 31.9428761 -8.5625 31.3125 C-4.86425465 29.25791925 -3.7814502 27.9693506 -2.4375 23.9375 C-2.28833421 20.18187067 -2.28833421 20.18187067 -4.5 16.875 C-7.85786444 14.06535833 -9.36195652 13.38294901 -13.62109375 13.73046875 C-17.3626617 14.8521863 -18.71049711 17.02668842 -20.5625 20.3125 Z " fill="#000000" transform="translate(267.5625,1.6875)"/>
</svg>
