<?xml version="1.0" encoding="UTF-8"?>
<svg version="1.1" xmlns="http://www.w3.org/2000/svg" width="500" height="500">
<path d="M0 0 C165 0 330 0 500 0 C500 165 500 330 500 500 C335 500 170 500 0 500 C0 335 0 170 0 0 Z " fill="#FEFEFE" transform="translate(0,0)"/>
<path d="M0 0 C114.84 0 229.68 0 348 0 C348 31.68 348 63.36 348 96 C233.16 96 118.32 96 0 96 C0 64.32 0 32.64 0 0 Z " fill="#F8F8FD" transform="translate(76,202)"/>
<path d="M0 0 C54.45 0 108.9 0 165 0 C165 2.97 165 5.94 165 9 C167.97 9 170.94 9 174 9 C171.91757788 15.45550858 169.56501146 21.72014435 167 28 C171.62 28 176.24 28 181 28 C179.51989357 30.96021286 178.53553428 32.7459405 176.46875 35.12890625 C175.98792969 35.68900391 175.50710938 36.24910156 175.01171875 36.82617188 C174.26341797 37.6856543 174.26341797 37.6856543 173.5 38.5625 C161.61629259 52.30399629 165.89947088 51.01587366 165 78 C110.55 78 56.1 78 0 78 C0 52.26 0 26.52 0 0 Z " fill="#010101" transform="translate(85,211)"/>
<path d="M0 0 C114.84 0 229.68 0 348 0 C348 31.68 348 63.36 348 96 C233.16 96 118.32 96 0 96 C0 64.32 0 32.64 0 0 Z M2 3 C2 32.7 2 62.4 2 93 C115.19 93 228.38 93 345 93 C345 63.3 345 33.6 345 3 C231.81 3 118.62 3 2 3 Z " fill="#010102" transform="translate(76,202)"/>
<path d="M0 0 C0.33 0 0.66 0 1 0 C1 2.97 1 5.94 1 9 C3.97 9 6.94 9 10 9 C7.91757788 15.45550858 5.56501146 21.72014435 3 28 C7.62 28 12.24 28 17 28 C15.51989357 30.96021286 14.53553428 32.7459405 12.46875 35.12890625 C11.98792969 35.68900391 11.50710938 36.24910156 11.01171875 36.82617188 C10.51285156 37.39916016 10.01398438 37.97214844 9.5 38.5625 C3.2421083 45.70808672 3.2421083 45.70808672 1.5859375 54.85546875 C1.56657135 55.51710526 1.5472052 56.17874176 1.5272522 56.86042786 C1.46757313 58.96932164 1.42111913 61.07827037 1.375 63.1875 C1.33680934 64.61916415 1.29775697 66.05080559 1.2578125 67.48242188 C1.16188227 70.98807312 1.07780803 74.49389445 1 78 C0.67 78 0.34 78 0 78 C-0.33 69.09 -0.66 60.18 -1 51 C-3.64 54.3 -6.28 57.6 -9 61 C-10.65985434 63.00565733 -12.32304633 65.00861752 -14 67 C-15 65 -15 65 -14.30322266 62.6015625 C-13.9272998 61.61929688 -13.55137695 60.63703125 -13.1640625 59.625 C-12.75929687 58.55765625 -12.35453125 57.4903125 -11.9375 56.390625 C-11.504375 55.27171875 -11.07125 54.1528125 -10.625 53 C-10.19960937 51.88109375 -9.77421875 50.7621875 -9.3359375 49.609375 C-6.21221301 41.42442602 -6.21221301 41.42442602 -5 39 C-8.63 39 -12.26 39 -16 39 C-15.36617071 32.2605493 -13.77702547 26.00449379 -11.9375 19.5 C-11.65583984 18.48679688 -11.37417969 17.47359375 -11.08398438 16.4296875 C-10.39434817 13.95167266 -9.69958811 11.47522 -9 9 C-6.03 9 -3.06 9 0 9 C0 6.03 0 3.06 0 0 Z " fill="#165BB8" transform="translate(249,211)"/>
<path d="M0 0 C1.65 0 3.3 0 5 0 C6.32 4.95 7.64 9.9 9 15 C11.63595772 12.36404228 12.07702112 9.93812819 13.125 6.375 C13.47820312 5.18648437 13.83140625 3.99796875 14.1953125 2.7734375 C14.46085937 1.85820312 14.72640625 0.94296875 15 0 C16.65 0 18.3 0 20 0 C22.53630629 5.55571853 24.31108451 11.12900806 26 17 C27.32 11.39 28.64 5.78 30 0 C31.98 0 33.96 0 36 0 C33.86602101 8.73089879 31.71981556 17.42846005 29 26 C26.69 26 24.38 26 22 26 C20.68 21.38 19.36 16.76 18 12 C16.23945126 16.64144669 14.53472968 21.27775484 13 26 C10.69 26 8.38 26 6 26 C4.99402985 22.23073331 3.99625198 18.45934588 3 14.6875 C2.71382813 13.61564453 2.42765625 12.54378906 2.1328125 11.43945312 C1.86210937 10.41142578 1.59140625 9.38339844 1.3125 8.32421875 C1.06113281 7.37635498 0.80976563 6.42849121 0.55078125 5.4519043 C0 3 0 3 0 0 Z " fill="#070708" transform="translate(292,241)"/>
<path d="M0 0 C14.33035714 -0.66964286 14.33035714 -0.66964286 17.4375 2.125 C19 5 19 5 18.875 8.1875 C18 11 18 11 17 13 C17.495 13.37125 17.99 13.7425 18.5 14.125 C20 16 20 16 20.5 18.9375 C20 22 20 22 17.95703125 24.17578125 C14.27935981 26.44456931 11.35339661 26.45567835 7.1875 26.25 C4.815625 26.1675 2.44375 26.085 0 26 C0 17.42 0 8.84 0 0 Z " fill="#F4F4F4" transform="translate(117,242)"/>
<path d="M0 0 C1.98 0 3.96 0 6 0 C6.06058594 1.20398438 6.12117187 2.40796875 6.18359375 3.6484375 C6.26799732 5.22397077 6.35264541 6.79949096 6.4375 8.375 C6.47681641 9.1690625 6.51613281 9.963125 6.55664062 10.78125 C6.68893404 15.02601221 6.68893404 15.02601221 8 19 C9.98 19 11.96 19 14 19 C15.6498007 15.70039859 15.38258361 12.00872116 15.5625 8.375 C15.60568359 7.57320312 15.64886719 6.77140625 15.69335938 5.9453125 C15.79951457 3.9637489 15.90026855 1.98189729 16 0 C17.98 0 19.96 0 22 0 C22.14584064 3.22868746 22.23424106 6.45652365 22.3125 9.6875 C22.35439453 10.59951172 22.39628906 11.51152344 22.43945312 12.45117188 C22.52407872 17.10557937 22.55322465 19.26885385 19.66796875 23.08203125 C15.42689474 26.13088533 12.13907776 26.35441916 7 26 C3.17343451 24.29930423 1.54782221 22.84495265 0 19 C-0.22705078 16.80175781 -0.22705078 16.80175781 -0.1953125 14.453125 C-0.18886719 13.60878906 -0.18242187 12.76445312 -0.17578125 11.89453125 C-0.15902344 11.02183594 -0.14226562 10.14914063 -0.125 9.25 C-0.11597656 8.36183594 -0.10695312 7.47367188 -0.09765625 6.55859375 C-0.07414577 4.37211942 -0.04128499 2.18619906 0 0 Z " fill="#F4F4F4" transform="translate(143,242)"/>
<path d="M0 0 C5.94 0 11.88 0 18 0 C18 1.65 18 3.3 18 5 C14.04 5 10.08 5 6 5 C6 6.98 6 8.96 6 11 C9.3 11 12.6 11 16 11 C16 12.32 16 13.64 16 15 C12.7 15 9.4 15 6 15 C6 16.98 6 18.96 6 21 C9.96 21 13.92 21 18 21 C18 22.65 18 24.3 18 26 C12.06 26 6.12 26 0 26 C0 17.42 0 8.84 0 0 Z " fill="#070708" transform="translate(363,241)"/>
<path d="M0 0 C6.6 0 13.2 0 20 0 C20 6.74827158 20 6.74827158 17.62890625 9.359375 C17.13712891 9.91753906 16.64535156 10.47570312 16.13867188 11.05078125 C15.61853516 11.61152344 15.09839844 12.17226562 14.5625 12.75 C10.89567922 16.60188369 10.89567922 16.60188369 8 21 C11.96 21 15.92 21 20 21 C20 22.65 20 24.3 20 26 C13.4 26 6.8 26 0 26 C0 19.27440042 0.44130732 18.81527288 4.875 14.3125 C8.7062746 10.37504952 8.7062746 10.37504952 12 6 C8.04 5.67 4.08 5.34 0 5 C0 3.35 0 1.7 0 0 Z " fill="#F9F9F9" transform="translate(171,242)"/>
<path d="M0 0 C6.6 0 13.2 0 20 0 C20 6.74787845 19.51871256 7.22503802 15.0625 11.75 C11.62397393 15.08214985 11.62397393 15.08214985 9 19 C8.34 19 7.68 19 7 19 C7 19.66 7 20.32 7 21 C10.96 21 14.92 21 19 21 C19 22.65 19 24.3 19 26 C12.73 26 6.46 26 0 26 C0 19.51190435 0.30091977 18.91761876 4.3125 14.375 C5.11300781 13.45460937 5.91351563 12.53421875 6.73828125 11.5859375 C7.48464844 10.73257813 8.23101562 9.87921875 9 9 C9.99 7.68 10.98 6.36 12 5 C8.04 5 4.08 5 0 5 C0 3.35 0 1.7 0 0 Z " fill="#F9F9F9" transform="translate(198,242)"/>
<path d="M0 0 C2.234375 0.859375 2.234375 0.859375 4 2 C4.75 4.625 4.75 4.625 5 7 C3.02 7 1.04 7 -1 7 C-1.33 6.34 -1.66 5.68 -2 5 C-3.32 5 -4.64 5 -6 5 C-6 6.32 -6 7.64 -6 9 C-5.38511719 9.18175781 -4.77023437 9.36351562 -4.13671875 9.55078125 C-2.92435547 9.92783203 -2.92435547 9.92783203 -1.6875 10.3125 C-0.48673828 10.67794922 -0.48673828 10.67794922 0.73828125 11.05078125 C3.17324964 12.07271099 4.43661286 12.8768194 6 15 C6.41811664 17.84090212 6.00568333 20.31817778 5 23 C1.12680567 25.88237718 -2.2381477 26.60789604 -7 26 C-10.49406769 24.33237678 -11.82670681 23.25993978 -14 20 C-14 19.01 -14 18.02 -14 17 C-11.69 17 -9.38 17 -7 17 C-6.67 17.99 -6.34 18.98 -6 20 C-4.35 20 -2.7 20 -1 20 C-0.67 18.68 -0.34 17.36 0 16 C-0.77085937 15.81824219 -1.54171875 15.63648438 -2.3359375 15.44921875 C-3.33882813 15.19785156 -4.34171875 14.94648438 -5.375 14.6875 C-6.37273437 14.44386719 -7.37046875 14.20023438 -8.3984375 13.94921875 C-11 13 -11 13 -13 10 C-13.44710264 6.497696 -13.40404695 4.66755584 -11.5625 1.625 C-7.83639705 -0.73789455 -4.30620967 -0.65199653 0 0 Z " fill="#0D0D0D" transform="translate(354,241)"/>
<path d="M0 0 C1.65 0 3.3 0 5 0 C5 8.58 5 17.16 5 26 C3.35 26 1.7 26 0 26 C0 17.42 0 8.84 0 0 Z " fill="#000000" transform="translate(331,241)"/>
<path d="M0 0 C5.75 -0.125 5.75 -0.125 8 1 C7.67 2.65 7.34 4.3 7 6 C4.69 6 2.38 6 0 6 C0 4.02 0 2.04 0 0 Z " fill="#020202" transform="translate(123,257)"/>
<path d="M0 0 C1.98 0 3.96 0 6 0 C6.33 1.65 6.66 3.3 7 5 C4.69 5.33 2.38 5.66 0 6 C0 4.02 0 2.04 0 0 Z " fill="#080808" transform="translate(123,247)"/>
</svg>
